<svg id="Capa_1" xmlns="http://www.w3.org/2000/svg" width="310.4" height="310.4"><style>.st0{fill:#9e9e9e}</style><path class="st0" d="M273.6 215c49.1-49.1 49.1-129 0-178.1-49.1-49.1-129-49.1-178.1 0-41.7 41.7-48 103.6-18.9 152 0 0 2.1 3.5-.7 6.3l-64.3 64.3c-12.8 12.8-15.8 30.7-4.5 42l2 2c11.3 11.3 29.2 8.3 42-4.5l64.1-64.1c3-3 6.4-.9 6.4-.9 48.4 28.9 110.3 22.6 152-19zm-154.9-23.3c-36.3-36.3-36.3-95.3 0-131.6s95.3-36.3 131.6 0 36.3 95.3 0 131.6-95.3 36.3-131.6 0z"/><path class="st0" d="M126.8 118.4c-1.7 0-3.4-.3-5.1-1-6.6-2.8-9.7-10.4-6.9-17 17.6-41.6 65.7-61.1 107.3-43.5 6.6 2.8 9.7 10.4 6.9 17-2.8 6.6-10.4 9.7-17 6.9-28.4-12-61.2 1.3-73.2 29.7-2.2 4.9-7 7.9-12 7.9z"/></svg>