<svg width="31" height="30" viewBox="0 0 31 30" fill="none" xmlns="http://www.w3.org/2000/svg">
<path fill-rule="evenodd" clip-rule="evenodd" d="M16.129 21.6781C15.962 19.8862 15.1925 18.1398 13.8205 16.7679C12.4484 15.3957 10.7019 14.6262 8.90978 14.4594C8.8591 15.0893 8.89718 15.725 9.02401 16.3463C8.98498 16.1549 8.95437 15.9621 8.93218 15.7685C10.3836 15.9349 11.7888 16.5746 12.9013 17.6871C14.0138 18.7995 14.6534 20.2047 14.8198 21.6559C15.2545 21.7058 15.6931 21.7132 16.129 21.6781Z" fill="#355069" fill-opacity="0.7"/>
<path fill-rule="evenodd" clip-rule="evenodd" d="M15.0472 8.32093C15.2141 10.113 15.9836 11.8596 17.3557 13.2317C18.7277 14.6037 20.4741 15.3732 22.266 15.5401C22.3011 15.1043 22.2937 14.6657 22.2438 14.231C20.7925 14.0646 19.3874 13.4249 18.275 12.3125C17.1624 11.1999 16.5228 9.79471 16.3564 8.34333C16.5469 8.36516 16.7366 8.39515 16.925 8.4333C16.3067 8.30796 15.6741 8.2705 15.0472 8.32093Z" fill="#355069" fill-opacity="0.7"/>
<path d="M20.7863 9.80276C23.6567 12.6731 23.6567 17.3269 20.7863 20.1972C17.916 23.0676 13.2622 23.0676 10.3919 20.1972C7.52151 17.3269 7.52151 12.6731 10.3919 9.80277C13.2622 6.93241 17.916 6.93241 20.7863 9.80276Z" stroke="#355069" stroke-opacity="0.7" stroke-width="1.3"/>
</svg>
