<svg width="30" height="30" viewBox="0 0 31 30" fill="none" xmlns="http://www.w3.org/2000/svg">
<path fill-rule="evenodd" clip-rule="evenodd" d="M16.3035 21.6167C19.4911 21.2911 21.978 18.5984 21.978 15.3249C21.978 13.5037 20.9299 11.7203 19.9251 10.3895C18.8806 9.00606 17.6807 7.85288 17.0191 7.25467C16.2404 6.55053 15.0657 6.55052 14.2869 7.25467C13.6254 7.85288 12.4255 9.00606 11.381 10.3895C10.3762 11.7203 9.32812 13.5037 9.32812 15.3249C9.32812 18.5987 11.8155 21.2916 15.0035 21.6168V22.5082C15.0035 22.8672 15.2945 23.1582 15.6535 23.1582C16.0125 23.1582 16.3035 22.8672 16.3035 22.5082V21.6167ZM16.3035 20.3081C18.7714 19.9891 20.678 17.8796 20.678 15.3249C20.678 12.5819 17.414 9.36435 16.1472 8.21892C15.8636 7.96245 15.4425 7.96244 15.1589 8.21892C13.8921 9.36435 10.6281 12.5819 10.6281 15.3249C10.6281 17.8799 12.5352 19.9896 15.0035 20.3082L15.0035 17.9545L12.9953 15.8781C12.7457 15.6201 12.7526 15.2086 13.0106 14.959C13.2687 14.7094 13.6802 14.7163 13.9297 14.9743L15.0035 16.0846V13.7465C15.0035 13.3875 15.2945 13.0965 15.6535 13.0965C16.0125 13.0965 16.3035 13.3875 16.3035 13.7465L16.3035 20.3081Z" fill="#355069" fill-opacity="0.7"/>
</svg>
