<svg width="31" height="30" viewBox="0 0 31 30" fill="none" xmlns="http://www.w3.org/2000/svg">
<path fill-rule="evenodd" clip-rule="evenodd" d="M12.324 6.5C11.0598 6.5 10.1828 6.71082 9.60151 6.94319C9.31144 7.05915 9.09785 7.17936 8.94892 7.27859C8.87458 7.32812 8.8167 7.37219 8.77376 7.40753C8.7523 7.42519 8.73459 7.44065 8.72045 7.4535C8.71339 7.45992 8.70721 7.46569 8.7019 7.47075L8.69459 7.4778L8.69142 7.48091L8.68995 7.48236L8.68925 7.48306C8.68891 7.48341 8.68857 7.48374 9.14805 7.9435L8.68857 7.48374C8.56658 7.60565 8.49805 7.77104 8.49805 7.9435V17.2965V17.4656V22.851C8.49805 23.21 8.78906 23.501 9.14805 23.501C9.50703 23.501 9.79805 23.21 9.79805 22.851V17.8055C9.87116 17.7656 9.96567 17.7197 10.0841 17.6724C10.4953 17.508 11.2062 17.3221 12.324 17.3221C13.3725 17.3221 14.2545 17.6677 15.2587 18.0691L15.296 18.084C16.2674 18.4725 17.3594 18.9091 18.6759 18.9091C19.9401 18.9091 20.8171 18.6982 21.3984 18.4659C21.6885 18.3499 21.9021 18.2297 22.051 18.1305C22.1254 18.0809 22.1832 18.0369 22.2262 18.0015C22.2476 17.9839 22.2653 17.9684 22.2795 17.9556C22.2866 17.9491 22.2927 17.9434 22.298 17.9383L22.3053 17.9313L22.3085 17.9282L22.31 17.9267L22.3107 17.926C22.311 17.9257 22.3114 17.9253 21.8519 17.4656L22.3114 17.9253C22.4334 17.8034 22.5019 17.638 22.5019 17.4656V7.9435C22.5019 7.68064 22.3436 7.44365 22.1007 7.34302C21.863 7.24449 21.59 7.29568 21.4042 7.47228L21.4001 7.47572C21.3903 7.48377 21.3675 7.5017 21.3302 7.52656C21.2558 7.57611 21.122 7.65428 20.9159 7.7367C20.5047 7.90108 19.7937 8.08701 18.6759 8.08701C17.6274 8.08701 16.7455 7.74139 15.7412 7.33994L15.7039 7.32502C14.7325 6.93661 13.6406 6.5 12.324 6.5ZM9.79805 16.3917V8.28347C9.87116 8.24356 9.96567 8.19764 10.0841 8.15031C10.4953 7.98593 11.2062 7.8 12.324 7.8C13.3725 7.8 14.2545 8.14562 15.2587 8.54707L15.296 8.56199C16.2674 8.9504 17.3594 9.38701 18.6759 9.38701C19.8051 9.38701 20.6253 9.21883 21.2019 9.01732V17.1256C21.1288 17.1655 21.0343 17.2114 20.9159 17.2588C20.5047 17.4231 19.7937 17.6091 18.6759 17.6091C17.6274 17.6091 16.7455 17.2634 15.7412 16.862L15.7039 16.8471C14.7325 16.4587 13.6406 16.0221 12.324 16.0221C11.1949 16.0221 10.3746 16.1902 9.79805 16.3917Z" fill="#355069"/>
</svg>
