<svg width="31" height="30" viewBox="0 0 31 30" fill="none" xmlns="http://www.w3.org/2000/svg">
<path fill-rule="evenodd" clip-rule="evenodd" d="M18.6898 9.32478C19.2607 8.42434 19.4363 7.37546 19.255 6.39619L19.1113 5.61999C19.0615 5.35102 18.8048 5.17199 18.5352 5.2182L17.7571 5.35154C16.7199 5.52929 15.7475 6.10783 15.0969 7.04076C14.58 7.78185 14.3432 8.63622 14.3636 9.47492C11.335 8.53823 8.17969 11.8608 8.17969 15.0708C8.17969 17.5115 9.72774 19.8969 11.079 21.5142C12.2091 22.8668 14.0806 23.2023 15.7457 22.6245C16.0052 22.5344 16.2881 22.5347 16.5473 22.6257C18.1934 23.2035 20.0427 22.8763 21.1646 21.5404C22.5194 19.9273 24.079 17.5351 24.079 15.0708C24.079 12.1478 21.447 9.12269 18.6898 9.32478ZM15.7253 9.88134C15.7444 9.87794 15.7636 9.87434 15.7827 9.87054C16.2079 9.78593 16.6138 9.60254 16.9631 9.32705C17.1728 9.16163 17.362 8.963 17.5227 8.7326C17.6834 8.5022 17.8044 8.25597 17.8872 8.00203C18.025 7.57913 18.0569 7.13482 17.9893 6.70655C17.9829 6.6656 17.9438 6.63838 17.9032 6.64647C17.478 6.73108 17.072 6.91447 16.7228 7.18996C16.5131 7.35538 16.3238 7.55402 16.1632 7.78442C16.0025 8.01482 15.8815 8.26104 15.7987 8.51498C15.6608 8.93789 15.629 9.3822 15.6965 9.81046C15.7001 9.83338 15.704 9.85626 15.7082 9.87908C15.7139 9.87985 15.7196 9.8806 15.7253 9.88134ZM14.0766 10.7492L14.6385 10.9496C15.6027 11.2934 16.656 11.2934 17.6201 10.9496L18.1815 10.7494C19.1166 10.4159 20.2065 10.716 21.1768 11.6184C22.15 12.5235 22.779 13.8519 22.779 15.0708C22.779 17.0471 21.4899 19.1317 20.1691 20.7043C19.4631 21.545 18.2215 21.8356 16.9779 21.3991C16.4409 21.2106 15.856 21.2102 15.3196 21.3963C14.0559 21.8348 12.7918 21.5366 12.0766 20.6807C10.7579 19.1024 9.47969 17.0243 9.47969 15.0708C9.47969 13.8473 10.1082 12.5185 11.0794 11.6149C12.0473 10.7145 13.137 10.4141 14.0766 10.7492Z" fill="#355069" fill-opacity="0.7"/>
</svg>
