<svg xmlns="http://www.w3.org/2000/svg" viewBox="0 0 58.153 58.153"><path d="M40.076 29.153h-7.142a3.995 3.995 0 0 0-2.858-2.858V16.153a1 1 0 1 0-2 0v10.142c-1.72.447-3 1.999-3 3.858 0 2.206 1.794 4 4 4 1.858 0 3.411-1.28 3.858-3h7.142a1 1 0 1 0 0-2zm-11 3c-1.103 0-2-.897-2-2s.897-2 2-2 2 .897 2 2-.897 2-2 2z"/><path d="M50.188 9.764l4.096 4.096a1 1 0 0 0 1.414 0c3.167-3.166 3.167-8.319 0-11.485s-8.319-3.166-11.485 0a.997.997 0 0 0 0 1.414l4.561 4.561-1.699 1.699c-4.78-4.284-11.089-6.896-17.998-6.896s-13.218 2.612-17.998 6.896l-1.7-1.699 4.561-4.561a.997.997 0 0 0 0-1.414c-3.166-3.166-8.318-3.166-11.485 0s-3.167 8.319 0 11.485a1 1 0 0 0 1.414 0l4.096-4.096 1.676 1.676c-4.679 4.857-7.565 11.453-7.565 18.713 0 9.898 5.357 18.564 13.321 23.265l-3.028 3.028a.999.999 0 1 0 1.414 1.414l3.45-3.45c3.578 1.754 7.597 2.743 11.843 2.743s8.265-.989 11.843-2.743l3.45 3.45a.997.997 0 0 0 1.414 0 .999.999 0 0 0 0-1.414l-3.028-3.028c7.964-4.701 13.321-13.367 13.321-23.265 0-7.26-2.886-13.856-7.565-18.713l1.677-1.676zm4.095-5.975c2.146 2.146 2.362 5.502.649 7.893L46.391 3.14a6.13 6.13 0 0 1 7.892.649zM3.22 11.681c-1.713-2.39-1.497-5.746.649-7.892s5.502-2.361 7.892-.649L3.22 11.681zm25.856 43.472c-13.785 0-25-11.215-25-25s11.215-25 25-25 25 11.215 25 25-11.214 25-25 25z"/><path d="M29.076 10.032a1 1 0 0 0 1-1v-1a1 1 0 1 0-2 0v1a1 1 0 0 0 1 1zM29.076 50.032a1 1 0 0 0-1 1v1a1 1 0 1 0 2 0v-1a1 1 0 0 0-1-1zM50.076 31.032h1a1 1 0 1 0 0-2h-1a1 1 0 1 0 0 2zM8.076 29.032h-1a1 1 0 1 0 0 2h1a1 1 0 1 0 0-2zM43.926 13.768l-.707.707a.999.999 0 1 0 1.414 1.414l.707-.707a.999.999 0 1 0-1.414-1.414zM13.52 44.174l-.707.707a.999.999 0 1 0 1.414 1.414l.707-.707a.999.999 0 1 0-1.414-1.414zM44.633 44.174a.999.999 0 1 0-1.414 1.414l.707.707a.997.997 0 0 0 1.414 0 .999.999 0 0 0 0-1.414l-.707-.707zM14.227 13.768a.999.999 0 1 0-1.414 1.414l.707.707a.997.997 0 0 0 1.414 0 .999.999 0 0 0 0-1.414l-.707-.707z"/></svg>