<svg width="31" height="30" viewBox="0 0 31 30" fill="none" xmlns="http://www.w3.org/2000/svg">
<path d="M7.61572 17.8285L7.16295 17.3621L7.16293 17.3621L7.61572 17.8285ZM22.0824 17.8285L21.6296 18.2949L21.6297 18.2949L22.0824 17.8285ZM16.945 8.0672L17.1947 7.46706V7.46706L16.945 8.0672ZM9.29166 15.3843L8.67072 15.1921L8.67063 15.1925L9.29166 15.3843ZM17.7543 20.0456L18.3961 20.1483C18.4016 20.1144 18.4043 20.08 18.4043 20.0456H17.7543ZM11.9609 20.0456H11.3109C11.3109 20.0808 11.3138 20.1159 11.3195 20.1505L11.9609 20.0456ZM11.9609 19.4023V18.7523C11.602 18.7523 11.3109 19.0434 11.3109 19.4023H11.9609ZM17.7543 19.4023H18.4043C18.4043 19.0434 18.1133 18.7523 17.7543 18.7523V19.4023ZM8.28697 18.7509C8.14111 18.7509 8.0492 18.6738 8.00792 18.5771C7.96752 18.4825 7.9788 18.3819 8.0685 18.2948L7.16293 17.3621C6.11651 18.3781 6.89965 20.0509 8.28697 20.0509V18.7509ZM12.0904 18.7509H8.28697V20.0509H12.0904V18.7509ZM17.6068 18.7509H12.0904V20.0509H17.6068V18.7509ZM21.4111 18.7509H17.6068V20.0509H21.4111V18.7509ZM21.6297 18.2949C21.7195 18.3821 21.7307 18.4826 21.6904 18.5771C21.6491 18.6737 21.5572 18.7509 21.4111 18.7509V20.0509C22.7985 20.0509 23.5821 18.3781 22.535 17.362L21.6297 18.2949ZM19.5231 12.8185C19.5231 14.1598 19.5891 15.1235 19.9088 15.9651C20.2348 16.8231 20.7981 17.4877 21.6296 18.2949L22.5351 17.362C21.7365 16.587 21.3452 16.0855 21.1241 15.5034C20.8967 14.905 20.8231 14.1549 20.8231 12.8185H19.5231ZM16.6954 8.66734C18.4058 9.3789 19.5231 11.006 19.5231 12.8185H20.8231C20.8231 10.4581 19.3685 8.37142 17.1947 7.46706L16.6954 8.66734ZM14.8492 8.30137C15.4938 8.30137 16.1184 8.42731 16.6954 8.66734L17.1947 7.46706C16.4585 7.16079 15.6641 7.00137 14.8492 7.00137V8.30137ZM10.1752 12.8185C10.1752 10.3419 12.2493 8.30137 14.8492 8.30137V7.00137C11.5683 7.00137 8.87521 9.58759 8.87521 12.8185H10.1752ZM9.91259 15.5765C10.134 14.8611 10.1752 14.2832 10.1752 12.8185H8.87521C8.87521 14.2779 8.82883 14.6813 8.67072 15.1921L9.91259 15.5765ZM8.06849 18.2948C9.02802 17.3633 9.6219 16.5174 9.91269 15.5762L8.67063 15.1925C8.468 15.8483 8.0364 16.5141 7.16295 17.3621L8.06849 18.2948ZM14.8563 23.1053C16.614 23.1053 18.1125 21.9207 18.3961 20.1483L17.1125 19.9429C16.9359 21.0461 16.0152 21.8053 14.8563 21.8053V23.1053ZM11.3195 20.1505C11.6102 21.9284 13.104 23.1053 14.8563 23.1053V21.8053C13.7041 21.8053 12.7845 21.0543 12.6024 19.9407L11.3195 20.1505ZM11.3109 19.4023V20.0456H12.6109V19.4023H11.3109ZM17.7543 18.7523H11.9609V20.0523H17.7543V18.7523ZM18.4043 20.0456V19.4023H17.1043V20.0456H18.4043Z" fill="#355069" fill-opacity="0.7"/>
</svg>
