<svg width="16" height="16" viewBox="0 0 16 16" fill="none" xmlns="http://www.w3.org/2000/svg">
<path fill-rule="evenodd" clip-rule="evenodd" d="M9.76649 6.88324C9.76649 8.47561 8.47561 9.76648 6.88324 9.76648C5.29087 9.76648 4 8.47561 4 6.88324C4 5.29087 5.29087 4 6.88324 4C8.47561 4 9.76649 5.29087 9.76649 6.88324ZM9.95984 9.25297C10.4656 8.59728 10.7665 7.7754 10.7665 6.88324C10.7665 4.73859 9.0279 3 6.88324 3C4.73859 3 3 4.73859 3 6.88324C3 9.0279 4.73859 10.7665 6.88324 10.7665C7.77527 10.7665 8.59705 10.4657 9.2527 9.96005L12.145 12.8523C12.3402 13.0476 12.6568 13.0476 12.8521 12.8523C13.0473 12.657 13.0473 12.3405 12.8521 12.1452L9.95984 9.25297Z" fill="#355069" fill-opacity="0.3"/>
</svg>
