<svg width="30" height="30" viewBox="0 0 31 30" fill="none" xmlns="http://www.w3.org/2000/svg">
<path d="M23.2406 15C23.2406 19.0593 19.9499 22.35 15.8906 22.35C11.8313 22.35 8.54062 19.0593 8.54062 15C8.54062 10.9407 11.8313 7.65 15.8906 7.65C19.9499 7.65 23.2406 10.9407 23.2406 15Z" stroke="#355069" stroke-opacity="1" stroke-width="1.3"/>
<path d="M18.8906 16.9922C18.2077 17.9048 17.1182 18.4955 15.8906 18.4955C14.6631 18.4955 13.5735 17.9048 12.8906 16.9922" stroke="#355069" stroke-opacity="1" stroke-width="1.3" stroke-linecap="round"/>
<path d="M13.8906 14.5C14.4429 14.5 14.8906 14.0523 14.8906 13.5C14.8906 12.9477 14.4429 12.5 13.8906 12.5C13.3383 12.5 12.8906 12.9477 12.8906 13.5C12.8906 14.0523 13.3383 14.5 13.8906 14.5Z" fill="#355069" fill-opacity="1"/>
<path d="M17.8906 14.5C18.4429 14.5 18.8906 14.0523 18.8906 13.5C18.8906 12.9477 18.4429 12.5 17.8906 12.5C17.3383 12.5 16.8906 12.9477 16.8906 13.5C16.8906 14.0523 17.3383 14.5 17.8906 14.5Z" fill="#355069" fill-opacity="1"/>
</svg>
