<svg width="30" height="30" viewBox="0 0 31 30" fill="none" xmlns="http://www.w3.org/2000/svg">
<path d="M15.6161 6.72266C14.7106 6.72352 13.9767 7.76563 13.9767 8.71974H13.98V10.9296L9.68045 13.1793C8.00756 14.1963 7.636 14.5776 7.73564 16.1462C7.75461 16.4448 8.0408 16.6492 8.33281 16.5836L13.9833 15.315L13.98 19.1958L12.0443 20.594C11.7234 20.9179 11.7343 21.162 11.7343 21.618V22.2035C11.7343 22.4423 11.9255 22.6359 12.1643 22.6359L15.6176 22.1072L19.0709 22.6359C19.3097 22.6359 19.5009 22.4423 19.5009 22.2035V21.618C19.5009 21.162 19.5118 20.9179 19.1909 20.594L17.2552 19.1958L17.252 15.315L22.9024 16.5836C23.1944 16.6492 23.4806 16.4448 23.4996 16.1462C23.5992 14.5776 23.2277 14.1963 21.5548 13.1793L17.2552 10.9296V8.71974H17.2585C17.2585 7.76563 16.5247 6.72352 15.6191 6.72266H15.6176H15.6161Z" stroke="#355069" stroke-opacity="1" stroke-width="1.3" stroke-linejoin="round"/>
</svg>
