<svg xmlns="http://www.w3.org/2000/svg" viewBox="0 0 502 502"><path d="M428.484 73.516C381.076 26.108 318.044 0 251 0S120.924 26.108 73.516 73.516 0 183.956 0 251s26.108 130.076 73.516 177.484S183.956 502 251 502s130.076-26.108 177.484-73.516C475.892 381.076 502 318.044 502 251s-26.108-130.076-73.516-177.484zM283.829 39h58.868c58.354 25.338 104.274 74.079 125.849 134.317h-41.725a21.139 21.139 0 0 0-19.587 13.087 21.139 21.139 0 0 0 4.595 23.104l3.3 3.3c4.638 4.637 4.638 12.184 0 16.821a11.42 11.42 0 0 1-8.13 3.368 11.422 11.422 0 0 1-8.13-3.368l-7.969-7.969c-13.135-13.135-30.599-20.369-49.175-20.369h-6.397v-8.036c0-19.265-7.502-37.376-21.124-50.999l-9.952-9.952c-10.216-10.216-23.799-15.843-38.247-15.843h-19.931c-7.721 0-14.98 3.007-20.439 8.466l-5.17 5.169c-5.459 5.459-8.466 12.718-8.466 20.439a4.736 4.736 0 0 1-4.73 4.73h-8.66v-12.154c0-8.648 3.368-16.78 9.483-22.895l5.849-5.849c5.244-5.243 8.131-12.214 8.131-19.629V92.71c0-.394.32-.713.713-.713H320.5c12.407 0 22.5-10.093 22.5-22.5S332.907 47 320.5 47h-36.671c-2.206 0-4-1.794-4-4s1.794-4 4-4zm74.893 252.437l-5.452 5.484a155.066 155.066 0 0 0-22.913 29.41l-9.918 16.5-12.403 20.492a48.673 48.673 0 0 0-7.036 25.21v.615a.857.857 0 0 1-.856.856h-.004a8.78 8.78 0 0 1-6.247-2.586 8.776 8.776 0 0 1-2.589-6.25c0-12.58-4.899-24.407-13.794-33.303l-4.591-4.591c-6.947-6.947-10.773-16.183-10.773-26.007v-29.475c0-14.806-12.045-26.851-26.852-26.851H231.8c-8.349 0-15.142-6.792-15.142-15.142v-15.343c0-9.034 7.35-16.384 16.384-16.384h79.886l24.099 24.1c6.003 6.003 9.309 13.984 9.309 22.473v11.464c0 8.56 5.082 15.955 12.386 19.328zM20 251c0-9.444.583-18.752 1.69-27.902h30.619c10.153 0 19.698 3.954 26.876 11.133l8.781 8.78c7.527 7.527 17.534 11.672 28.179 11.672 5.65 0 10.962 2.2 14.957 6.195l.193.193c7.233 7.233 11.217 16.851 11.217 27.081v17.886c0 13.63-5.308 26.444-14.945 36.082l-19.15 19.15c-13.442 13.443-21.939 30.512-24.58 49.002C44.303 368.799 20 312.684 20 251zm231 231c-56.288 0-107.93-20.247-148.049-53.827v-5.423c0-17.881 6.963-34.693 19.607-47.337l19.15-19.15c13.415-13.416 20.803-31.252 20.803-50.224v-17.886c0-15.573-6.064-30.213-17.075-41.224l-.193-.192c-7.772-7.772-18.106-12.053-29.099-12.053a19.72 19.72 0 0 1-14.036-5.814l-8.781-8.781c-10.957-10.956-25.524-16.99-41.019-16.99h-27.3C47.126 98.635 140.047 20 251 20c7.743 0 15.396.39 22.946 1.138-8.316 3.774-14.117 12.151-14.117 21.862 0 13.234 10.766 24 24 24H320.5c1.378 0 2.5 1.122 2.5 2.5s-1.122 2.5-2.5 2.5h-97.713c-11.421 0-20.713 9.292-20.713 20.713v2.028a7.706 7.706 0 0 1-2.273 5.486l-5.85 5.85c-9.893 9.893-15.341 23.047-15.341 37.037v13.574c0 10.245 8.334 18.58 18.579 18.58h10.081c13.636 0 24.73-11.094 24.73-24.73 0-2.379.926-4.615 2.608-6.297l5.169-5.169c.203-.203.414-.393.632-.574.167.195.334.389.518.574l19.932 19.932c-3.833 3.911-3.813 10.186.068 14.068 1.953 1.953 4.512 2.929 7.071 2.929s5.119-.976 7.071-2.929l7-7c3.905-3.905 3.905-10.237 0-14.143l-15.45-15.45c8.875.156 17.197 3.677 23.489 9.97l9.953 9.952c9.844 9.844 15.266 22.934 15.266 36.856v.817H233.04c-20.062 0-36.384 16.322-36.384 36.384V245.8c0 19.377 15.765 35.142 35.142 35.142h3.493a6.86 6.86 0 0 1 6.852 6.851v29.475c0 15.167 5.906 29.425 16.63 40.15l4.591 4.591c5.118 5.118 7.937 11.923 7.937 19.161 0 7.705 3.001 14.948 8.451 20.396 5.446 5.443 12.685 8.44 20.384 8.44h.015C311.648 410 321 400.644 321 389.149v-.614a28.68 28.68 0 0 1 4.146-14.854l12.409-20.502a.226.226 0 0 1 .016-.026l9.928-16.517a135.064 135.064 0 0 1 19.955-25.613l11.147-11.213c4.428-4.455 5.731-11.08 3.319-16.879s-8.029-9.546-14.31-9.546a1.274 1.274 0 0 1-1.273-1.273v-11.464c0-13.832-5.386-26.835-15.167-36.616l-2.215-2.215c10.49 1.524 20.173 6.357 27.804 13.988l7.969 7.969c6.141 6.141 14.207 9.211 22.272 9.211s16.132-3.07 22.272-9.211c6.024-6.024 9.341-14.033 9.341-22.553 0-8.519-3.317-16.528-9.341-22.553l-3.3-3.3c-.198-.198-.567-.567-.26-1.308.307-.741.829-.741 1.109-.741h47.888C479.468 211.761 482 231.09 482 251c0 127.374-103.626 231-231 231z"/><path d="M184 85c5.523 0 10-4.477 10-10V54.494c0-5.523-4.477-10-10-10s-10 4.477-10 10V75c0 5.523 4.477 10 10 10zM450.39 314.63c-5.176-1.93-10.935.702-12.863 5.877C408.652 397.961 333.692 450 251 450c-5.523 0-10 4.477-10 10s4.477 10 10 10c45.543 0 89.207-13.849 126.272-40.048 36.24-25.617 63.556-61.046 78.995-102.458 1.929-5.175-.702-10.934-5.877-12.864zM202.433 444.034a198.232 198.232 0 0 1-28.554-9.526c-5.092-2.144-10.954.249-13.096 5.339-2.142 5.09.249 10.954 5.339 13.096a218.202 218.202 0 0 0 31.445 10.491c.817.205 1.635.303 2.44.303 4.478 0 8.554-3.03 9.692-7.57 1.344-5.358-1.909-10.79-7.266-12.133z"/></svg>