<svg xmlns="http://www.w3.org/2000/svg" viewBox="0 0 470 470"><path d="M401.17 68.83C356.784 24.444 297.771 0 235 0S113.216 24.444 68.83 68.83C24.444 113.215 0 172.229 0 235s24.444 121.785 68.83 166.17C113.216 445.556 172.229 470 235 470s121.784-24.444 166.17-68.83C445.556 356.785 470 297.771 470 235s-24.444-121.785-68.83-166.17zM235 455c-121.309 0-220-98.691-220-220S113.691 15 235 15s220 98.691 220 220-98.691 220-220 220z"/><circle cx="235" cy="97.5" r="7.5"/><path d="M437.56 242.365a7.501 7.501 0 0 0-5.467-2.365h-26.046v-22.5c0-4.142-3.357-7.5-7.5-7.5s-7.5 3.358-7.5 7.5V240H372.5v-52.5a7.5 7.5 0 0 0-3.525-6.36L292.5 133.343V97.5A7.5 7.5 0 0 0 285 90h-13.253C268.262 72.905 253.109 60 235 60s-33.262 12.905-36.747 30H185a7.5 7.5 0 0 0-7.5 7.5V130h-25v-22.5c0-4.142-3.357-7.5-7.5-7.5s-7.5 3.358-7.5 7.5V130H105a7.5 7.5 0 0 0-7.5 7.5v102.499l-59.593-.01a7.504 7.504 0 0 0-7.487 7.969c3.523 56.171 29.666 105.984 69.187 140.798.281.291.587.556.911.799 23.389 20.362 51.39 35.496 82.128 43.638.307.102.622.184.946.246A204.258 204.258 0 0 0 235 440c17.409 0 34.679-2.229 51.386-6.558a7.297 7.297 0 0 0 1.002-.262 203.842 203.842 0 0 0 50.574-20.966c30.222-17.629 55.631-42.86 73.479-72.965a7.5 7.5 0 0 0-12.902-7.65 189.49 189.49 0 0 1-26.039 34.299V255h51.438a188.457 188.457 0 0 1-12.616 50.728 7.499 7.499 0 0 0 4.156 9.758 7.498 7.498 0 0 0 9.758-4.157 203.511 203.511 0 0 0 14.342-63.359 7.499 7.499 0 0 0-2.018-5.605zM192.5 175h85v215h-85V175zm0-70H205a7.5 7.5 0 0 0 7.5-7.5c0-12.407 10.094-22.5 22.5-22.5s22.5 10.093 22.5 22.5a7.5 7.5 0 0 0 7.5 7.5h12.5v55h-85v-55zM46.059 254.99l51.441.009V307.5c0 4.142 3.357 7.5 7.5 7.5s7.5-3.358 7.5-7.5V145h65v245H175c-4.143 0-7.5 3.358-7.5 7.5s3.357 7.5 7.5 7.5h2.5v11.078c-24.056-7.668-46.091-20.018-65-35.997V337.5c0-4.142-3.357-7.5-7.5-7.5s-7.5 3.358-7.5 7.5v28.458c-28.127-29.492-46.937-68.033-51.441-110.968zM192.5 420.179V405h85v15.106A187.644 187.644 0 0 1 235 425a189.427 189.427 0 0 1-42.5-4.821zm100-4.235V405h2.5c4.143 0 7.5-3.358 7.5-7.5s-3.357-7.5-7.5-7.5h-2.5V151.032l65 40.625v188.307a191.989 191.989 0 0 1-65 35.98z"/><path d="M325 320a7.5 7.5 0 0 0-7.5 7.5v10c0 4.142 3.357 7.5 7.5 7.5s7.5-3.358 7.5-7.5v-10a7.5 7.5 0 0 0-7.5-7.5zM325 280a7.5 7.5 0 0 0-7.5 7.5v10c0 4.142 3.357 7.5 7.5 7.5s7.5-3.358 7.5-7.5v-10a7.5 7.5 0 0 0-7.5-7.5zM325 240a7.5 7.5 0 0 0-7.5 7.5v10c0 4.142 3.357 7.5 7.5 7.5s7.5-3.358 7.5-7.5v-10a7.5 7.5 0 0 0-7.5-7.5zM325 200a7.5 7.5 0 0 0-7.5 7.5v10c0 4.142 3.357 7.5 7.5 7.5s7.5-3.358 7.5-7.5v-10a7.5 7.5 0 0 0-7.5-7.5zM145 345a7.5 7.5 0 0 0 7.5-7.5v-10c0-4.142-3.357-7.5-7.5-7.5s-7.5 3.358-7.5 7.5v10a7.5 7.5 0 0 0 7.5 7.5zM145 305a7.5 7.5 0 0 0 7.5-7.5v-10c0-4.142-3.357-7.5-7.5-7.5s-7.5 3.358-7.5 7.5v10a7.5 7.5 0 0 0 7.5 7.5zM145 265a7.5 7.5 0 0 0 7.5-7.5v-10c0-4.142-3.357-7.5-7.5-7.5s-7.5 3.358-7.5 7.5v10a7.5 7.5 0 0 0 7.5 7.5zM145 185a7.5 7.5 0 0 0 7.5-7.5v-10c0-4.142-3.357-7.5-7.5-7.5s-7.5 3.358-7.5 7.5v10a7.5 7.5 0 0 0 7.5 7.5zM145 225a7.5 7.5 0 0 0 7.5-7.5v-10c0-4.142-3.357-7.5-7.5-7.5s-7.5 3.358-7.5 7.5v10a7.5 7.5 0 0 0 7.5 7.5zM235 350a7.5 7.5 0 0 0-7.5 7.5v10c0 4.142 3.357 7.5 7.5 7.5s7.5-3.358 7.5-7.5v-10a7.5 7.5 0 0 0-7.5-7.5zM235 310a7.5 7.5 0 0 0-7.5 7.5v10c0 4.142 3.357 7.5 7.5 7.5s7.5-3.358 7.5-7.5v-10a7.5 7.5 0 0 0-7.5-7.5zM235 270a7.5 7.5 0 0 0-7.5 7.5v10c0 4.142 3.357 7.5 7.5 7.5s7.5-3.358 7.5-7.5v-10a7.5 7.5 0 0 0-7.5-7.5zM235 230a7.5 7.5 0 0 0-7.5 7.5v10c0 4.142 3.357 7.5 7.5 7.5s7.5-3.358 7.5-7.5v-10a7.5 7.5 0 0 0-7.5-7.5zM235 190a7.5 7.5 0 0 0-7.5 7.5v10c0 4.142 3.357 7.5 7.5 7.5s7.5-3.358 7.5-7.5v-10a7.5 7.5 0 0 0-7.5-7.5zM215 145h40c4.143 0 7.5-3.358 7.5-7.5s-3.357-7.5-7.5-7.5h-40c-4.143 0-7.5 3.358-7.5 7.5s3.357 7.5 7.5 7.5z"/></svg>