<svg xmlns="http://www.w3.org/2000/svg" viewBox="0 0 33 33"><path d="M16.5 33C7.402 33 0 25.598 0 16.5S7.402 0 16.5 0 33 7.402 33 16.5 25.598 33 16.5 33zm0-32C7.953 1 1 7.953 1 16.5S7.953 32 16.5 32 32 25.047 32 16.5 25.047 1 16.5 1z"/><path d="M16.5 33a16.38 16.38 0 0 1-9.549-3.06.5.5 0 1 1 .116-.876c4.146-1.535 4.815-2.781 4.815-5.169 0-.631-.142-.838-.398-1.214-.339-.494-.803-1.171-1.129-2.939-.048-.254-.089-.274-.316-.384-.606-.292-1.163-.712-1.309-2.628 0-.928.32-1.441.585-1.708-.058-.33-.153-.899-.242-1.519-.453-2.777-.473-6.178 3.433-7.759 3.404-1.38 6.121-.626 6.974.273.604.019 2.162.177 3.246 1.438 1.668 1.94 1.137 6.363.955 7.562.266.261.589.767.589 1.675-.146 1.954-.703 2.375-1.31 2.666-.228.11-.269.129-.316.384-.326 1.768-.789 2.445-1.128 2.939-.257.375-.398.583-.398 1.214 0 2.388.669 3.634 4.815 5.169a.498.498 0 0 1 .116.876A16.38 16.38 0 0 1 16.5 33zm-8.183-3.349C10.779 31.191 13.589 32 16.5 32s5.721-.809 8.183-2.349c-3.474-1.426-4.565-2.864-4.565-5.755 0-.941.278-1.348.573-1.779.304-.444.682-.996.971-2.556.139-.754.576-.964.865-1.103.311-.149.631-.303.744-1.803-.001-.764-.344-.972-.358-.98a.533.533 0 0 1-.264-.537c.248-1.329.656-5.474-.681-7.031-.913-1.062-2.352-1.091-2.626-1.08-.046-.004-.091-.005-.134-.016-.13-.033-.35-.146-.417-.262-.272-.466-2.641-1.403-5.91-.08-3.231 1.308-3.238 4.112-2.819 6.682.138.957.289 1.784.29 1.788a.5.5 0 0 1-.283.544c.003 0-.339.209-.339 1.008.112 1.461.433 1.616.743 1.765.289.139.727.349.866 1.103.288 1.56.666 2.112.97 2.556.296.431.574.838.574 1.779 0 2.894-1.091 4.332-4.566 5.757z"/></svg>