<?xml version="1.0" encoding="utf-8"?>
<!-- Generator: Adobe Illustrator 26.3.1, SVG Export Plug-In . SVG Version: 6.00 Build 0)  -->
<svg version="1.1" id="Layer_1" xmlns="http://www.w3.org/2000/svg" xmlns:xlink="http://www.w3.org/1999/xlink" x="0px" y="0px"
	 width="20px" height="80px" viewBox="0 0 20 80" enable-background="new 0 0 20 80" xml:space="preserve">
<path fill="#868686" d="M6.98,13.59c0.1,0.1,0.24,0.15,0.37,0.15s0.27-0.05,0.37-0.15l2.42-2.42l2.43,2.43
	c0.1,0.1,0.24,0.15,0.37,0.15c0.14,0,0.27-0.05,0.37-0.15c0.21-0.21,0.21-0.54,0-0.75l-2.43-2.43L13.32,8
	c0.21-0.21,0.21-0.54,0-0.75c-0.21-0.21-0.54-0.21-0.75,0l-2.42,2.42L7.74,7.27c-0.21-0.21-0.54-0.21-0.75,0
	c-0.21,0.21-0.21,0.54,0,0.75l2.41,2.41l-2.42,2.42C6.77,13.05,6.77,13.39,6.98,13.59L6.98,13.59z"/>
<path fill="#868686" d="M10.15,18.43c4.41,0,8-3.59,8-8c0-4.41-3.59-8-8-8c-4.41,0-8,3.59-8,8C2.15,14.84,5.74,18.43,10.15,18.43z
	 M10.15,3.49c3.83,0,6.94,3.11,6.94,6.94c0,3.83-3.11,6.94-6.94,6.94c-3.83,0-6.94-3.11-6.94-6.94C3.21,6.6,6.33,3.49,10.15,3.49
	L10.15,3.49z"/>
<path fill="#3371B7" d="M6.98,33.59c0.1,0.1,0.24,0.15,0.37,0.15s0.27-0.05,0.37-0.15l2.42-2.42l2.43,2.43
	c0.1,0.1,0.24,0.15,0.37,0.15c0.14,0,0.27-0.05,0.37-0.15c0.21-0.21,0.21-0.54,0-0.75l-2.43-2.43L13.32,28
	c0.21-0.21,0.21-0.54,0-0.75c-0.21-0.21-0.54-0.21-0.75,0l-2.42,2.42l-2.41-2.41c-0.21-0.21-0.54-0.21-0.75,0
	c-0.21,0.21-0.21,0.54,0,0.75l2.41,2.41l-2.42,2.42C6.77,33.05,6.77,33.39,6.98,33.59L6.98,33.59z"/>
<path fill="#3371B7" d="M10.15,38.43c4.41,0,8-3.59,8-8c0-4.41-3.59-8-8-8c-4.41,0-8,3.59-8,8C2.15,34.84,5.74,38.43,10.15,38.43z
	 M10.15,23.49c3.83,0,6.94,3.11,6.94,6.94c0,3.83-3.11,6.94-6.94,6.94c-3.83,0-6.94-3.11-6.94-6.94
	C3.21,26.6,6.33,23.49,10.15,23.49L10.15,23.49z"/>
<path fill="#C0C0BF" d="M6.98,53.59c0.1,0.1,0.24,0.15,0.37,0.15s0.27-0.05,0.37-0.15l2.42-2.42l2.43,2.43
	c0.1,0.1,0.24,0.15,0.37,0.15c0.14,0,0.27-0.05,0.37-0.15c0.21-0.21,0.21-0.54,0-0.75l-2.43-2.43L13.32,48
	c0.21-0.21,0.21-0.54,0-0.75c-0.21-0.21-0.54-0.21-0.75,0l-2.42,2.42l-2.41-2.41c-0.21-0.21-0.54-0.21-0.75,0
	c-0.21,0.21-0.21,0.54,0,0.75l2.41,2.41l-2.42,2.42C6.77,53.05,6.77,53.39,6.98,53.59L6.98,53.59z"/>
<path fill="#C0C0BF" d="M10.15,58.43c4.41,0,8-3.59,8-8c0-4.41-3.59-8-8-8c-4.41,0-8,3.59-8,8C2.15,54.84,5.74,58.43,10.15,58.43z
	 M10.15,43.49c3.83,0,6.94,3.11,6.94,6.94c0,3.83-3.11,6.94-6.94,6.94c-3.83,0-6.94-3.11-6.94-6.94
	C3.21,46.6,6.33,43.49,10.15,43.49L10.15,43.49z"/>
<path fill="#6AA9DD" d="M6.98,73.59c0.1,0.1,0.24,0.15,0.37,0.15s0.27-0.05,0.37-0.15l2.42-2.42l2.43,2.43
	c0.1,0.1,0.24,0.15,0.37,0.15c0.14,0,0.27-0.05,0.37-0.15c0.21-0.21,0.21-0.54,0-0.75l-2.43-2.43L13.32,68
	c0.21-0.21,0.21-0.54,0-0.75c-0.21-0.21-0.54-0.21-0.75,0l-2.42,2.42l-2.41-2.41c-0.21-0.21-0.54-0.21-0.75,0
	c-0.21,0.21-0.21,0.54,0,0.75l2.41,2.41l-2.42,2.42C6.77,73.05,6.77,73.39,6.98,73.59L6.98,73.59z"/>
<path fill="#6AA9DD" d="M10.15,78.43c4.41,0,8-3.59,8-8c0-4.41-3.59-8-8-8c-4.41,0-8,3.59-8,8C2.15,74.84,5.74,78.43,10.15,78.43z
	 M10.15,63.49c3.83,0,6.94,3.11,6.94,6.94c0,3.83-3.11,6.94-6.94,6.94c-3.83,0-6.94-3.11-6.94-6.94
	C3.21,66.6,6.33,63.49,10.15,63.49L10.15,63.49z"/>
</svg>
