<svg width="24" height="24" xmlns="http://www.w3.org/2000/svg" fill-rule="evenodd" clip-rule="evenodd"><path d="M14.209 22c.09 1.185-.293 1.99-2.468 2-4.083.019-4.441 0-8.524 0-2.207 0-2.521-.793-2.435-2h13.427zm6.791 2h-5.717c.423-.691.541-1.665.38-2.365l.004-.004c1.098-1.187 1.089-2.974.107-4.142.513-1.464-.89-5.941-6.443-6.844l-.331-2.645h14l-2 16zm-7.291-3c-.006 0-12.482-.002-12.506-.006-.674-.068-1.203-.711-1.203-1.494 0-.782.529-1.426 1.203-1.494.024-.004 1.318-.008 1.318-.008 2.088.018 2.227 1.639 3.256 1.633 1.028-.006 1.298-1.607 3.223-1.631h4.709c.715.019 1.291.684 1.291 1.5 0 .817-.576 1.482-1.291 1.5zm.647-4h-13.734c0-2.493 2.636-5 6.878-5s6.856 2.507 6.856 5zm9.644-10h-16v-1.382c.87 0 2-.697 2-1.618h6.185l2.072-4 1.359.634-1.776 3.366h4.199c0 .922 1.092 1.618 1.961 1.618v1.382z"/></svg>