<?xml version="1.0" encoding="iso-8859-1"?>
<!-- Generator: Adobe Illustrator 19.0.0, SVG Export Plug-In . SVG Version: 6.00 Build 0)  -->
<svg version="1.1" id="Layer_1" xmlns="http://www.w3.org/2000/svg" xmlns:xlink="http://www.w3.org/1999/xlink" x="0px" y="0px"
	 viewBox="0 0 512 512" style="enable-background:new 0 0 512 512;" xml:space="preserve">
<g>
	<g>
		<path d="M337.502,61.244c-46.267-19.341-98.094-21.573-145.933-6.282c-5.497,1.758-8.528,7.638-6.772,13.134
			c1.758,5.497,7.64,8.528,13.134,6.772c43.115-13.782,89.819-11.772,131.51,5.657c1.317,0.55,2.682,0.811,4.026,0.811
			c4.087,0,7.969-2.415,9.644-6.422C345.339,69.59,342.827,63.469,337.502,61.244z"/>
	</g>
</g>
<g>
	<g>
		<path d="M368.323,77.252c-0.114-0.076-0.258-0.168-0.375-0.239c-4.925-3.009-11.356-1.458-14.364,3.467
			c-2.984,4.884-1.483,11.249,3.346,14.29c1.731,1.099,3.67,1.626,5.587,1.626c3.377,0,6.69-1.633,8.704-4.654
			C374.422,86.941,373.125,80.453,368.323,77.252z"/>
	</g>
</g>
<g>
	<g>
		<path d="M447.293,161.884c-4.081-4.08-10.698-4.08-14.778,0l-14.629,14.629c-4.08,4.081-4.08,10.698,0,14.778
			c2.04,2.041,4.715,3.06,7.388,3.06s5.349-1.02,7.389-3.06l14.629-14.629C451.373,172.581,451.373,165.964,447.293,161.884z"/>
	</g>
</g>
<g>
	<g>
		<path d="M83.999,214.617c-4.081-4.08-10.698-4.08-14.778,0l-14.629,14.629c-4.08,4.081-4.08,10.698,0,14.778
			c2.04,2.041,4.715,3.06,7.388,3.06s5.349-1.02,7.39-3.06l14.629-14.629C88.08,225.313,88.08,218.697,83.999,214.617z"/>
	</g>
</g>
<g>
	<g>
		<path d="M115.508,100.235c-4.081-4.08-10.698-4.08-14.778,0l-14.629,14.629c-4.08,4.081-4.08,10.698,0,14.778
			c2.04,2.041,4.715,3.06,7.388,3.06s5.348-1.02,7.39-3.06l14.629-14.629C119.589,110.932,119.589,104.315,115.508,100.235z"/>
	</g>
</g>
<g>
	<g>
		<path d="M386.754,116.24h-20.688c-5.771,0-10.449,4.678-10.449,10.449s4.678,10.449,10.449,10.449h20.688
			c5.771,0,10.449-4.678,10.449-10.449S392.525,116.24,386.754,116.24z"/>
	</g>
</g>
<g>
	<g>
		<path d="M151.326,161.908l-14.618-14.618c-4.081-4.08-10.698-4.081-14.778,0s-4.08,10.698,0,14.778l14.618,14.618
			c2.04,2.041,4.715,3.06,7.388,3.06c2.674,0,5.349-1.02,7.39-3.06C155.407,172.605,155.407,165.988,151.326,161.908z"/>
	</g>
</g>
<g>
	<g>
		<path d="M411.753,229.241l-14.618-14.617c-4.08-4.081-10.696-4.08-14.777,0s-4.08,10.697,0,14.777l14.618,14.617
			c2.041,2.041,4.715,3.06,7.388,3.06s5.348-1.021,7.388-3.06C415.835,239.938,415.834,233.322,411.753,229.241z"/>
	</g>
</g>
<g>
	<g>
		<path d="M318.326,126.607l-14.617-14.617c-4.081-4.08-10.698-4.081-14.778,0c-4.08,4.081-4.08,10.698,0,14.778l14.617,14.617
			c2.04,2.041,4.715,3.061,7.388,3.061c2.674,0,5.348-1.02,7.39-3.061C322.406,137.304,322.406,130.687,318.326,126.607z"/>
	</g>
</g>
<g>
	<g>
		<path d="M195.194,97.387c-3.904-4.25-10.515-4.528-14.763-0.622l-15.22,13.989c-4.249,3.905-4.527,10.515-0.622,14.763
			c2.061,2.242,4.873,3.378,7.696,3.378c2.528,0,5.063-0.911,7.068-2.756l15.22-13.989
			C198.821,108.245,199.099,101.635,195.194,97.387z"/>
	</g>
</g>
<g>
	<g>
		<path d="M256.153,145.241h-0.267c-0.007,0-0.014,0-0.021,0c-5.762,0-10.437,4.665-10.449,10.429
			c-0.011,5.771,4.658,10.457,10.429,10.469h0.268c0.007,0,0.014,0,0.021,0c5.762,0,10.438-4.664,10.449-10.429
			C266.593,149.939,261.924,145.252,256.153,145.241z"/>
	</g>
</g>
<g>
	<g>
		<path d="M437.019,74.981C388.668,26.628,324.38,0,256,0S123.332,26.628,74.981,74.981C26.629,123.333,0,187.62,0,256
			c0,68.38,26.628,132.668,74.981,181.019C123.333,485.371,187.62,512,256,512c68.38,0,132.668-26.628,181.019-74.981
			C485.371,388.667,512,324.38,512,256S485.372,123.332,437.019,74.981z M256,491.102c-94.256,0-175.718-55.763-213.173-136.024
			c6.781-0.56,13.126-3.458,18.112-8.35c5.756-5.647,9.057-13.495,9.057-21.531v-9.364c0-7.449,6.027-13.624,13.435-13.767
			c3.561-0.079,6.976,1.322,9.617,3.913c2.77,2.718,4.359,6.484,4.359,10.332v23.709c0,18.754,15.222,34.302,33.932,34.66
			c0.221,0.004,0.442,0.006,0.664,0.006c8.973,0,17.47-3.499,23.989-9.895c6.751-6.623,10.623-15.826,10.623-25.25v-18.215
			c20.172,27.524,52.723,45.432,89.384,45.432c52.209,0,96.09-36.312,107.73-85.007c1.36,1.72,2.18,3.887,2.18,6.23v25.773
			c0,19.673,15.968,35.984,35.596,36.361c0.233,0.004,0.464,0.006,0.696,0.006c9.409,0,18.321-3.671,25.161-10.38
			c7.086-6.951,11.149-16.61,11.149-26.5v-24.856c0-2.83,1.17-5.6,3.21-7.602c1.927-1.889,4.429-2.882,6.986-2.854
			c5.403,0.104,9.8,4.612,9.8,10.05v2.721c0,14.409,10.071,26.69,23.526,30.04C453.848,418.996,363.189,491.102,256,491.102z
			 M479.405,290.703v-2.721c0-16.741-13.591-30.624-30.297-30.944c-8.235-0.159-16.057,2.978-22.022,8.829
			c-6.021,5.906-9.473,14.113-9.473,22.52v24.856c0,4.314-1.782,8.536-4.886,11.582c-2.97,2.912-6.846,4.462-10.82,4.397
			c-8.326-0.16-15.099-7.098-15.099-15.468v-25.773c0-13.154-8.392-24.538-20.091-28.971c0.027-1.001,0.043-2.004,0.043-3.011
			c0-46.06-29.007-87.788-72.182-103.836c-5.411-2.01-11.425,0.745-13.434,6.154c-2.01,5.409,0.745,11.424,6.154,13.434
			c35.027,13.021,58.562,46.877,58.562,84.248c0,49.549-40.312,89.861-89.861,89.861c-49.549,0-89.861-40.312-89.861-89.861
			c0-37.372,23.535-71.228,58.565-84.246c5.409-2.01,8.164-8.026,6.154-13.434s-8.022-8.165-13.434-6.154
			c-43.175,16.045-72.184,57.773-72.184,103.835c0,13.71,2.511,26.841,7.085,38.971c-4.217,5.279-6.607,11.892-6.607,18.808v25.763
			c0,3.848-1.589,7.614-4.359,10.332c-2.642,2.591-6.036,3.973-9.617,3.913c-7.407-0.142-13.434-6.317-13.434-13.766v-23.709
			c0-9.424-3.872-18.627-10.623-25.251c-6.681-6.554-15.435-10.081-24.652-9.889C64.322,281.53,49.1,297.079,49.1,315.832v9.364
			c0,2.461-1.019,4.871-2.794,6.613c-1.668,1.635-3.808,2.506-6.034,2.47c-3.374-0.065-6.387-2.139-7.733-5.21
			c-7.543-23.011-11.64-47.569-11.64-73.07C20.898,126.365,126.365,20.898,256,20.898S491.102,126.365,491.102,256
			c0,15.182-1.464,30.026-4.227,44.414C482.594,299.276,479.405,295.331,479.405,290.703z"/>
	</g>
</g>
<g>
</g>
<g>
</g>
<g>
</g>
<g>
</g>
<g>
</g>
<g>
</g>
<g>
</g>
<g>
</g>
<g>
</g>
<g>
</g>
<g>
</g>
<g>
</g>
<g>
</g>
<g>
</g>
<g>
</g>
</svg>
