<?xml version="1.0" encoding="iso-8859-1"?>
<!-- Generator: Adobe Illustrator 19.0.0, SVG Export Plug-In . SVG Version: 6.00 Build 0)  -->
<svg version="1.1" id="Capa_1" xmlns="http://www.w3.org/2000/svg" xmlns:xlink="http://www.w3.org/1999/xlink" x="0px" y="0px"
	 viewBox="0 0 470 470" style="enable-background:new 0 0 470 470;" xml:space="preserve">
<g>
	<path d="M401.17,68.83C356.784,24.444,297.771,0,235,0S113.216,24.444,68.83,68.83S0,172.229,0,235s24.444,121.784,68.83,166.17
		S172.229,470,235,470s121.784-24.444,166.17-68.83S470,297.771,470,235S445.556,113.216,401.17,68.83z M235,455
		c-121.309,0-220-98.691-220-220S113.691,15,235,15s220,98.691,220,220S356.309,455,235,455z"/>
	<path d="M382.5,173.979c3.532,0,6.735,1.824,8.568,4.879c1.355,2.26,3.797,3.642,6.432,3.642s5.076-1.382,6.432-3.642
		c1.833-3.055,5.036-4.879,8.568-4.879c4.143,0,7.5-3.357,7.5-7.5s-3.357-7.5-7.5-7.5c-5.461,0-10.724,1.829-15,5.039
		c-4.276-3.21-9.539-5.039-15-5.039c-4.143,0-7.5,3.357-7.5,7.5S378.357,173.979,382.5,173.979z"/>
	<path d="M322.5,135.459c3.532,0,6.735,1.824,8.568,4.879c1.355,2.26,3.797,3.642,6.432,3.642s5.076-1.382,6.432-3.642
		c1.833-3.055,5.036-4.879,8.568-4.879c4.143,0,7.5-3.357,7.5-7.5s-3.357-7.5-7.5-7.5c-5.461,0-10.724,1.829-15,5.039
		c-4.276-3.21-9.539-5.039-15-5.039c-4.143,0-7.5,3.357-7.5,7.5S318.357,135.459,322.5,135.459z"/>
	<path d="M117.5,173.979c3.532,0,6.735,1.824,8.568,4.879c1.355,2.26,3.797,3.642,6.432,3.642s5.076-1.382,6.432-3.642
		c1.833-3.055,5.036-4.879,8.568-4.879c4.143,0,7.5-3.357,7.5-7.5s-3.357-7.5-7.5-7.5c-5.461,0-10.724,1.829-15,5.039
		c-4.276-3.21-9.539-5.039-15-5.039c-4.143,0-7.5,3.357-7.5,7.5S113.357,173.979,117.5,173.979z"/>
	<path d="M436.826,253.173c-1.371-1.591-3.345-2.533-5.443-2.6c-12.664-0.4-24.343-7.548-32.041-19.608
		c-1.378-2.158-3.762-3.465-6.322-3.465s-4.944,1.307-6.321,3.464c-7.974,12.489-20.074,19.652-33.2,19.652
		c-13.089,0-25.177-7.164-33.162-19.656c-1.378-2.154-3.759-3.459-6.316-3.46c-2.56,0-4.94,1.303-6.319,3.456
		c-8,12.494-20.098,19.66-33.192,19.66c-13.098,0-25.189-7.164-33.175-19.656c-1.379-2.155-3.761-3.46-6.319-3.46
		c-2.562,0.001-4.944,1.307-6.321,3.464c-7.974,12.489-20.069,19.652-33.187,19.652c-13.098,0-25.19-7.164-33.176-19.656
		c-1.378-2.154-3.759-3.459-6.316-3.46c-2.56,0-4.94,1.303-6.319,3.456c-8,12.494-20.098,19.66-33.191,19.66
		c-13.099,0-25.19-7.164-33.175-19.655c-1.378-2.156-3.761-3.461-6.319-3.461c-2.562,0.001-4.944,1.307-6.321,3.465
		c-7.699,12.061-19.389,19.207-32.07,19.608c-2.099,0.066-4.072,1.009-5.443,2.6c-1.371,1.59-2.013,3.682-1.769,5.767
		c5.786,49.506,29.545,95.215,66.901,128.706C135.964,421.407,184.509,440,235,440c45.241,0,88.17-14.518,124.145-41.982
		c3.293-2.513,3.924-7.22,1.41-10.512c-2.513-3.293-7.221-3.927-10.512-1.41C316.705,411.547,276.924,425,235,425
		c-93.882,0-173.276-68.424-187.68-160.366c11.265-2.217,21.561-8.215,29.707-17.284c10.49,11.584,24.673,18.267,39.476,18.267
		c14.808,0,29.002-6.691,39.505-18.291c10.493,11.6,24.685,18.291,39.498,18.291c14.828,0,29.022-6.689,39.511-18.284
		c10.493,11.595,24.682,18.284,39.491,18.284c14.808,0,29.002-6.691,39.505-18.291c10.493,11.6,24.679,18.291,39.485,18.291
		c14.826,0,29.018-6.681,39.505-18.264c8.14,9.065,18.422,15.061,29.671,17.278c-6.044,38.177-24.008,74.246-51.068,102.269
		c-2.877,2.979-2.794,7.728,0.186,10.605c2.98,2.877,7.729,2.793,10.605-0.186c31.08-32.185,51.038-74.226,56.198-118.38
		C438.839,256.854,438.197,254.763,436.826,253.173z"/>
	<path d="M289.513,310.616c-4.143,0-7.5,3.357-7.5,7.5s3.357,7.5,7.5,7.5h10c4.143,0,7.5-3.357,7.5-7.5s-3.357-7.5-7.5-7.5H289.513z
		"/>
	<path d="M358.49,280.616h-10c-4.143,0-7.5,3.357-7.5,7.5s3.357,7.5,7.5,7.5h10c4.143,0,7.5-3.357,7.5-7.5
		S362.633,280.616,358.49,280.616z"/>
	<path d="M111.503,280.616c-4.143,0-7.5,3.357-7.5,7.5s3.357,7.5,7.5,7.5h10c4.143,0,7.5-3.357,7.5-7.5s-3.357-7.5-7.5-7.5H111.503z
		"/>
	<path d="M235,191.25c30.327,0,55-24.673,55-55s-24.673-55-55-55s-55,24.673-55,55S204.673,191.25,235,191.25z M235,96.25
		c22.056,0,40,17.944,40,40s-17.944,40-40,40s-40-17.944-40-40S212.944,96.25,235,96.25z"/>
</g>
<g>
</g>
<g>
</g>
<g>
</g>
<g>
</g>
<g>
</g>
<g>
</g>
<g>
</g>
<g>
</g>
<g>
</g>
<g>
</g>
<g>
</g>
<g>
</g>
<g>
</g>
<g>
</g>
<g>
</g>
</svg>
