<?xml version="1.0" encoding="iso-8859-1"?>
<!-- Generator: Adobe Illustrator 19.0.0, SVG Export Plug-In . SVG Version: 6.00 Build 0)  -->
<svg version="1.1" id="Capa_1" xmlns="http://www.w3.org/2000/svg" xmlns:xlink="http://www.w3.org/1999/xlink" x="0px" y="0px"
	 viewBox="0 0 470 470" style="enable-background:new 0 0 470 470;" xml:space="preserve">
<g>
	<path d="M401.17,68.83C356.784,24.444,297.771,0,235,0S113.216,24.444,68.83,68.83C24.444,113.215,0,172.229,0,235
		s24.444,121.785,68.83,166.17C113.216,445.556,172.229,470,235,470s121.784-24.444,166.17-68.83
		C445.556,356.785,470,297.771,470,235S445.556,113.215,401.17,68.83z M235,455c-121.309,0-220-98.691-220-220S113.691,15,235,15
		s220,98.691,220,220S356.309,455,235,455z"/>
	<circle cx="235" cy="97.5" r="7.5"/>
	<path d="M437.56,242.365c-1.418-1.509-3.396-2.365-5.467-2.365h-26.046v-22.5c0-4.142-3.357-7.5-7.5-7.5s-7.5,3.358-7.5,7.5V240
		H372.5v-52.5c0-2.586-1.332-4.989-3.525-6.36L292.5,133.343V97.5c0-4.142-3.357-7.5-7.5-7.5h-13.253
		C268.262,72.905,253.109,60,235,60s-33.262,12.905-36.747,30H185c-4.143,0-7.5,3.358-7.5,7.5V130h-25v-22.5
		c0-4.142-3.357-7.5-7.5-7.5s-7.5,3.358-7.5,7.5V130H105c-4.143,0-7.5,3.358-7.5,7.5v102.499l-59.593-0.01
		c-2.071,0-4.05,0.856-5.468,2.365c-1.417,1.509-2.148,3.538-2.019,5.604c3.523,56.171,29.666,105.984,69.187,140.798
		c0.281,0.291,0.587,0.556,0.911,0.799c23.389,20.362,51.39,35.496,82.128,43.638c0.307,0.102,0.622,0.184,0.946,0.246
		C200.051,437.714,217.279,440,235,440c17.409,0,34.679-2.229,51.386-6.558c0.343-0.064,0.677-0.152,1.002-0.262
		c17.671-4.675,34.7-11.706,50.574-20.966c30.222-17.629,55.631-42.86,73.479-72.965c2.112-3.563,0.937-8.164-2.626-10.276
		c-3.563-2.113-8.165-0.937-10.276,2.626c-7.418,12.511-16.183,23.989-26.039,34.299V255h51.438
		c-1.832,17.421-6.064,34.451-12.616,50.728c-1.547,3.843,0.313,8.211,4.156,9.758c3.845,1.548,8.212-0.315,9.758-4.157
		c8.148-20.242,12.974-41.559,14.342-63.359C439.708,245.903,438.978,243.875,437.56,242.365z M192.5,175h85v215h-85V175z
		 M192.5,105H205c4.143,0,7.5-3.358,7.5-7.5c0-12.407,10.094-22.5,22.5-22.5s22.5,10.093,22.5,22.5c0,4.142,3.357,7.5,7.5,7.5h12.5
		v55h-85V105z M46.059,254.99l51.441,0.009V307.5c0,4.142,3.357,7.5,7.5,7.5s7.5-3.358,7.5-7.5V145h65v245H175
		c-4.143,0-7.5,3.358-7.5,7.5s3.357,7.5,7.5,7.5h2.5v11.078c-24.056-7.668-46.091-20.018-65-35.997V337.5c0-4.142-3.357-7.5-7.5-7.5
		s-7.5,3.358-7.5,7.5v28.458C69.373,336.466,50.563,297.925,46.059,254.99z M192.5,420.179V405h85v15.106
		C263.688,423.317,249.44,425,235,425C220.413,425,206.187,423.327,192.5,420.179z M292.5,415.944V405h2.5
		c4.143,0,7.5-3.358,7.5-7.5s-3.357-7.5-7.5-7.5h-2.5V151.032l65,40.625v188.307C338.393,396.067,316.273,408.316,292.5,415.944z"/>
	<path d="M325,320c-4.143,0-7.5,3.358-7.5,7.5v10c0,4.142,3.357,7.5,7.5,7.5s7.5-3.358,7.5-7.5v-10
		C332.5,323.358,329.143,320,325,320z"/>
	<path d="M325,280c-4.143,0-7.5,3.358-7.5,7.5v10c0,4.142,3.357,7.5,7.5,7.5s7.5-3.358,7.5-7.5v-10
		C332.5,283.358,329.143,280,325,280z"/>
	<path d="M325,240c-4.143,0-7.5,3.358-7.5,7.5v10c0,4.142,3.357,7.5,7.5,7.5s7.5-3.358,7.5-7.5v-10
		C332.5,243.358,329.143,240,325,240z"/>
	<path d="M325,200c-4.143,0-7.5,3.358-7.5,7.5v10c0,4.142,3.357,7.5,7.5,7.5s7.5-3.358,7.5-7.5v-10
		C332.5,203.358,329.143,200,325,200z"/>
	<path d="M145,345c4.143,0,7.5-3.358,7.5-7.5v-10c0-4.142-3.357-7.5-7.5-7.5s-7.5,3.358-7.5,7.5v10
		C137.5,341.642,140.857,345,145,345z"/>
	<path d="M145,305c4.143,0,7.5-3.358,7.5-7.5v-10c0-4.142-3.357-7.5-7.5-7.5s-7.5,3.358-7.5,7.5v10
		C137.5,301.642,140.857,305,145,305z"/>
	<path d="M145,265c4.143,0,7.5-3.358,7.5-7.5v-10c0-4.142-3.357-7.5-7.5-7.5s-7.5,3.358-7.5,7.5v10
		C137.5,261.642,140.857,265,145,265z"/>
	<path d="M145,185c4.143,0,7.5-3.358,7.5-7.5v-10c0-4.142-3.357-7.5-7.5-7.5s-7.5,3.358-7.5,7.5v10
		C137.5,181.642,140.857,185,145,185z"/>
	<path d="M145,225c4.143,0,7.5-3.358,7.5-7.5v-10c0-4.142-3.357-7.5-7.5-7.5s-7.5,3.358-7.5,7.5v10
		C137.5,221.642,140.857,225,145,225z"/>
	<path d="M235,350c-4.143,0-7.5,3.358-7.5,7.5v10c0,4.142,3.357,7.5,7.5,7.5s7.5-3.358,7.5-7.5v-10
		C242.5,353.358,239.143,350,235,350z"/>
	<path d="M235,310c-4.143,0-7.5,3.358-7.5,7.5v10c0,4.142,3.357,7.5,7.5,7.5s7.5-3.358,7.5-7.5v-10
		C242.5,313.358,239.143,310,235,310z"/>
	<path d="M235,270c-4.143,0-7.5,3.358-7.5,7.5v10c0,4.142,3.357,7.5,7.5,7.5s7.5-3.358,7.5-7.5v-10
		C242.5,273.358,239.143,270,235,270z"/>
	<path d="M235,230c-4.143,0-7.5,3.358-7.5,7.5v10c0,4.142,3.357,7.5,7.5,7.5s7.5-3.358,7.5-7.5v-10
		C242.5,233.358,239.143,230,235,230z"/>
	<path d="M235,190c-4.143,0-7.5,3.358-7.5,7.5v10c0,4.142,3.357,7.5,7.5,7.5s7.5-3.358,7.5-7.5v-10
		C242.5,193.358,239.143,190,235,190z"/>
	<path d="M215,145h40c4.143,0,7.5-3.358,7.5-7.5s-3.357-7.5-7.5-7.5h-40c-4.143,0-7.5,3.358-7.5,7.5S210.857,145,215,145z"/>
</g>
<g>
</g>
<g>
</g>
<g>
</g>
<g>
</g>
<g>
</g>
<g>
</g>
<g>
</g>
<g>
</g>
<g>
</g>
<g>
</g>
<g>
</g>
<g>
</g>
<g>
</g>
<g>
</g>
<g>
</g>
</svg>
