<svg xmlns="http://www.w3.org/2000/svg" width="24" height="24" viewBox="0 0 24 24"><path d="M8.011 6.215c-1.711-.009-3.86.918-5.499 2.557-.625.625-1.176 1.355-1.601 2.174 1.479-1.119 3.057-1.47 4.903-.434.544-1.437 1.27-2.9 2.197-4.297zm9.785 9.773c-1.516.991-3.007 1.706-4.297 2.21 1.036 1.848.686 3.424-.434 4.902.819-.424 1.549-.975 2.175-1.602 1.644-1.642 2.572-3.796 2.556-5.51zm6.152-15.946c-.412-.028-.816-.042-1.213-.042-8.602 0-13.498 6.558-15.28 11.833l4.728 4.729c5.428-1.946 11.817-6.661 11.817-15.172 0-.439-.017-.888-.052-1.348zm-9.888 9.91c-.391-.391-.391-1.023 0-1.414s1.023-.391 1.414 0 .391 1.023 0 1.414-1.024.39-1.414 0zm2.828-2.828c-.781-.78-.781-2.047 0-2.828s2.048-.781 2.828 0c.781.781.781 2.047 0 2.828s-2.047.781-2.828 0zm-8.021 8.625l1.013 1.012c-.942.954-1.907 2.083-2.287 3.637l-1.39-.34c.467-1.912 1.607-3.24 2.664-4.309zm-1.634-1.633l1.01 1.01c-1.119 1.103-2.413 2.203-4.307 2.666l-.34-1.39c1.553-.381 2.69-1.35 3.637-2.286zm2.746 6.446c.206 2.029-.946 3.265-2.48 3.421-.902.092-1.701-.205-2.356-.88-1.575.556-3.074-.047-3.864-1.172-.622-.883-.76-2.002-.382-3.074-.676-.656-.973-1.448-.88-2.356.154-1.521 1.361-2.694 3.484-2.475l.21 1.208c-.716.067-1.379.104-1.809.533-.722.723-.504 2.229.851 2.629-.899.904-.813 2.202-.137 2.914.707.747 2.057.863 2.987-.063.416 1.41 1.942 1.537 2.629.851.424-.424.465-1.075.531-1.782l1.216.246z"/></svg>