<?xml version="1.0" encoding="iso-8859-1"?>
<!-- Generator: Adobe Illustrator 19.0.0, SVG Export Plug-In . SVG Version: 6.00 Build 0)  -->
<svg version="1.1" id="Capa_1" xmlns="http://www.w3.org/2000/svg" xmlns:xlink="http://www.w3.org/1999/xlink" x="0px" y="0px"
	 viewBox="0 0 490.4 490.4" style="enable-background:new 0 0 490.4 490.4;" xml:space="preserve">
<g>
	<g>
		<path d="M229,381.2c4.4,4.4,10.1,6.8,16.3,6.8c6.2,0,12-2.4,16.3-6.8l96.3-96.3c15.7-15.7,24.4-36.6,24.4-58.7
			c0-22.2-8.6-43.1-24.3-58.8c-15.7-15.7-36.6-24.3-58.7-24.3c-20,0-38.9,7-54,19.9c-15.1-13-34.1-20-54.1-20
			c-22.2,0-43,8.6-58.7,24.3s-24.3,36.6-24.3,58.8s8.7,43,24.4,58.7L229,381.2z M149.7,184.5c11.1-11.1,25.7-17.1,41.4-17.1
			s30.4,6.1,41.5,17.2l4,4c4.8,4.8,12.5,4.8,17.3,0l3.9-3.9c11.1-11.1,25.8-17.2,41.5-17.2c15.6,0,30.3,6.1,41.4,17.2
			c11.1,11.1,17.2,25.8,17.1,41.4c0,15.7-6.1,30.4-17.2,41.5l-95.3,95.3l-95.5-95.5c-11.1-11.1-17.2-25.8-17.2-41.4
			C132.6,210.3,138.7,195.6,149.7,184.5z"/>
		<path d="M245.2,490.4c135.2,0,245.2-110,245.2-245.2S380.4,0,245.2,0S0,110,0,245.2S110,490.4,245.2,490.4z M245.2,24.5
			c121.7,0,220.7,99,220.7,220.7s-99,220.7-220.7,220.7s-220.7-99-220.7-220.7S123.5,24.5,245.2,24.5z"/>
	</g>
</g>
<g>
</g>
<g>
</g>
<g>
</g>
<g>
</g>
<g>
</g>
<g>
</g>
<g>
</g>
<g>
</g>
<g>
</g>
<g>
</g>
<g>
</g>
<g>
</g>
<g>
</g>
<g>
</g>
<g>
</g>
</svg>
