<?xml version="1.0" encoding="utf-8"?>
<!-- Generator: Adobe Illustrator 26.3.1, SVG Export Plug-In . SVG Version: 6.00 Build 0)  -->
<svg version="1.1" xmlns="http://www.w3.org/2000/svg" xmlns:xlink="http://www.w3.org/1999/xlink" x="0px" y="0px" width="200px"
	 height="80px" viewBox="0 0 200 80" enable-background="new 0 0 200 80" xml:space="preserve">
<g id="Layer_11">
	<g>
		<g>
			<path fill="#3371B7" d="M10,23.05c-3.84,0-6.96,3.12-6.96,6.96c0,3.84,3.12,6.96,6.96,6.96c3.84,0,6.96-3.12,6.96-6.96
				C16.96,26.17,13.84,23.05,10,23.05z M10,36.19c-3.41,0-6.18-2.77-6.18-6.18c0-3.41,2.77-6.18,6.18-6.18
				c3.41,0,6.18,2.77,6.18,6.18C16.18,33.42,13.41,36.19,10,36.19z M14.58,31.22c-0.07-0.1-0.19-0.16-0.32-0.16l-8.52,0
				c-0.13,0-0.25,0.06-0.32,0.16c-0.07,0.1-0.09,0.24-0.05,0.36c0.69,1.97,2.55,3.29,4.63,3.29c2.08,0,3.94-1.32,4.63-3.29
				C14.67,31.46,14.65,31.33,14.58,31.22L14.58,31.22z M10,34.08c-1.56,0-2.97-0.88-3.67-2.24h7.34C12.97,33.2,11.56,34.08,10,34.08
				L10,34.08z M7.22,29.47c0.63,0,1.15-0.51,1.15-1.15c0-0.63-0.51-1.15-1.15-1.15c-0.63,0-1.15,0.51-1.15,1.15
				C6.07,28.95,6.59,29.47,7.22,29.47z M7.22,27.95c0.2,0,0.37,0.16,0.37,0.37c0,0.2-0.16,0.36-0.37,0.36
				c-0.2,0-0.37-0.16-0.37-0.37C6.85,28.12,7.02,27.95,7.22,27.95z M12.78,29.47c0.63,0,1.15-0.51,1.15-1.15
				c0-0.63-0.51-1.15-1.15-1.15c-0.63,0-1.15,0.51-1.15,1.15C11.63,28.95,12.15,29.47,12.78,29.47z M12.78,27.95
				c0.2,0,0.37,0.16,0.37,0.37c0,0.2-0.16,0.36-0.37,0.36s-0.37-0.16-0.37-0.37C12.42,28.12,12.58,27.95,12.78,27.95z"/>
		</g>
	</g>
	<g>
		<g>
			<path fill="none" stroke="#3371B7" d="M64.06,33.42l2.33-0.01c0.21,0,0.37,0.17,0.37,0.37v2.11c0,0.21-0.17,0.37-0.37,0.37h-2.33
				c-0.21,0-0.37-0.17-0.37-0.37v-2.1C63.69,33.58,63.85,33.42,64.06,33.42z"/>
			<path fill="none" stroke="#3371B7" d="M73.49,33.46h2.45c0.21,0,0.37,0.17,0.37,0.37v2.05c0,0.21-0.17,0.37-0.37,0.37h-2.42
				c-0.2,0-0.37-0.16-0.37-0.37l-0.03-2.05C73.12,33.63,73.29,33.46,73.49,33.46z"/>
			<path fill="none" stroke="#3371B7" d="M63.69,28.41H76.3v4.99H63.69V28.41z"/>
			<path fill="none" stroke="#3371B7" d="M65.54,23.63h8.9c1.03,0,1.86,0.83,1.86,1.86v3.13H63.69v-3.13
				C63.69,24.47,64.52,23.63,65.54,23.63z"/>
			<ellipse fill="#3371B7" cx="66.18" cy="30.9" rx="0.95" ry="0.95"/>
			<ellipse fill="#3371B7" cx="73.81" cy="30.9" rx="0.95" ry="0.95"/>
		</g>
	</g>
	<g>
		<g>
			<path fill="none" stroke="#3371B7" d="M96.45,30.02c0,3.58-2.89,6.48-6.45,6.48s-6.45-2.9-6.45-6.48c0-3.58,2.89-6.48,6.45-6.48
				S96.45,26.44,96.45,30.02z"/>
			<path fill="none" stroke="#3371B7" d="M96.26,28.64c0.01,0.04,0.02,0.08,0.03,0.12c-0.87,0.07-2.94,0.1-4.64-1.15
				c-1.07-0.79-1.96-1.72-2.59-2.52c-0.31-0.4-0.56-0.76-0.72-1.05c-0.05-0.08-0.08-0.15-0.12-0.22c0.46-0.09,1.2-0.18,2.04-0.15
				c1.17,0.04,2.48,0.31,3.49,1.06c1.03,0.76,1.7,1.83,2.1,2.75C96.07,27.93,96.19,28.34,96.26,28.64z"/>
			<path fill="none" stroke="#3371B7" d="M83.98,32.17c-0.02-0.04-0.03-0.08-0.04-0.12c0.86-0.17,2.91-0.42,4.73,0.64
				c1.13,0.65,1.91,1.51,2.43,2.27c0.36,0.53,0.58,1.01,0.7,1.32c-0.38,0.12-0.97,0.25-1.68,0.28c-0.96,0.04-2.12-0.13-3.23-0.77
				c-1.11-0.64-1.89-1.64-2.39-2.5C84.25,32.85,84.08,32.45,83.98,32.17z"/>
		</g>
	</g>
	<g>
		<g>
			<path fill="none" stroke="#3371B7" stroke-linecap="round" d="M116.26,26.8l-1.39,1.99l-0.78-0.8l-0.64-0.65l-0.01,0.91
				l-0.07,8.25h-6.76l-0.08-8.25l-0.01-0.91l-0.63,0.65l-0.78,0.8l-1.4-2.01l2.58-2.9c0.07-0.08,0.17-0.13,0.28-0.13h1.32l0.39,0.7
				c0.73,1.32,2.64,1.28,3.31-0.07l0.31-0.63h1.15c0.1,0,0.2,0.04,0.27,0.11l0.26-0.26l-0.26,0.26L116.26,26.8z"/>
			<path fill="none" stroke="#3371B7" d="M110.12,27.73h2.01v0.94c0,0.37-0.45,0.67-1.01,0.67c-0.56,0-1.01-0.3-1.01-0.67V27.73z"/>
		</g>
	</g>
	<g>
		<g>
			<path fill="none" stroke="#3371B7" d="M126.82,34.34c0,1.25-1.01,2.25-2.24,2.25s-2.24-1.01-2.24-2.25s1.01-2.25,2.24-2.25
				S126.82,33.09,126.82,34.34z"/>
			<path fill="none" stroke="#3371B7" d="M137.64,34.34c0,1.25-1.01,2.25-2.24,2.25c-1.24,0-2.24-1.01-2.24-2.25
				s1.01-2.25,2.24-2.25C136.64,32.08,137.64,33.09,137.64,34.34z"/>
			<path fill="none" stroke="#3371B7" d="M126.84,24.42v9.92"/>
			<path fill="none" stroke="#3371B7" d="M137.66,24.42v9.92"/>
			<path fill="none" stroke="#3371B7" d="M126.84,23.52h10.82v2.7h-10.82V23.52z"/>
		</g>
	</g>
	<g>
		<g>
			<path fill="#3371B7" d="M170.77,23.08l-0.05,0.02c-0.24-0.03-0.49-0.04-0.74-0.04c-2.14,0-4.04,0.97-5.32,2.49l-0.05,0.02
				l-0.12-0.14l-0.99-1.18l-0.3,3.4l3.4,0.3l-1.08-1.29l-0.08-0.1l0.08-0.1c1.15-1.45,2.99-2.31,4.97-2.13h0
				c3.16,0.28,5.49,3.09,5.16,6.26c-0.31,3.01-3.07,5.32-6.09,5.1c-3.12-0.23-5.45-2.93-5.26-6.03l-1.26-0.11
				c-0.25,3.76,2.55,7.06,6.33,7.39c3.9,0.35,7.33-2.58,7.57-6.51C177.17,26.78,174.4,23.49,170.77,23.08z"/>
			<path fill="#3371B7" d="M170.27,27.42c0-0.34-0.28-0.63-0.63-0.63c-0.35,0-0.63,0.28-0.63,0.63v3.18c0,0.17,0.07,0.32,0.19,0.44
				c0.12,0.11,0.27,0.18,0.45,0.18h2.37c0.35,0,0.63-0.28,0.63-0.63c0-0.35-0.28-0.63-0.63-0.63h-1.58h-0.16V29.8V27.42z"/>
		</g>
	</g>
	<g>
		<g>
			<path fill="none" stroke="#3371B7" d="M186.16,23.44h7.68c1.5,0,2.71,1.21,2.71,2.71v7.74c0,1.5-1.21,2.71-2.71,2.71h-7.68
				c-1.5,0-2.71-1.21-2.71-2.71v-7.74C183.45,24.65,184.66,23.44,186.16,23.44z"/>
			<ellipse fill="#3371B7" cx="185.98" cy="28.91" rx="0.73" ry="0.73"/>
			<ellipse fill="#3371B7" cx="194.02" cy="26.72" rx="0.73" ry="0.73"/>
			<path fill="none" stroke="#3371B7" stroke-linecap="round" d="M185.98,33.31l0.4-0.27c0.44-0.29,0.99-0.34,1.47-0.14l1.01,0.43
				c0.48,0.21,1.04,0.16,1.47-0.14l0.79-0.53c0.44-0.29,0.99-0.34,1.47-0.14l1.78,0.77"/>
		</g>
	</g>
	<path fill="#3371B7" d="M147.66,23.33c-1.26,0.03-2.5,0.35-3.64,0.99c-0.15,0.08-0.25,0.24-0.25,0.4v11.6
		c0,0.26,0.07,0.47,0.29,0.47c0.64,0,0.48-0.38,0.48-0.64v-5.68c0.66-0.34,3.15-1.1,5.78-0.09c1.57,0.6,3.48,0.72,4.31,0.68
		c0.82-0.04,1.33-0.27,1.33-0.27c0.16-0.08,0.27-0.24,0.27-0.41v-5.65c0-0.16-0.1-0.32-0.26-0.41s-0.37-0.09-0.53-0.01
		c0,0-0.21,0.12-0.86,0.15c-0.65,0.03-2.39-0.06-3.84-0.6c-0.82-0.3-1.68-0.47-2.54-0.51C148.02,23.33,147.84,23.32,147.66,23.33z
		 M147.73,24.01c0.14,0,0.28,0,0.42,0c0.73,0.03,1.47,0.18,2.18,0.44c1.58,0.58,3.49,0.71,4.31,0.67c0.22-0.01,0.79-0.05,0.96-0.08
		v5.17c-0.14,0.03-0.74,0.06-1.02,0.08c-0.65,0.03-2.39-0.06-3.83-0.61c-2.53-0.96-5.05-0.54-6.2-0.08v-4.9
		C145.46,24.25,146.74,24.03,147.73,24.01z"/>
	<g>
		<path fill="none" stroke="#3371B7" d="M48.07,23.47h3.72c2.49,0,4.5,2.02,4.5,4.5c0,0.5-0.41,0.91-0.91,0.91H44.47
			c-0.5,0-0.91-0.41-0.91-0.91C43.56,25.49,45.58,23.47,48.07,23.47z"/>
		<path fill="none" stroke="#3371B7" stroke-linecap="round" d="M43.5,28.75c-0.23,0.13-0.52,1.16,0,1.51
			c1.41,0.95,8.46,0.84,11.35,0.56c0.77-0.07,1.64-0.43,1.72-1.19c0.03-0.3-0.1-0.62-0.56-0.88"/>
		<path fill="none" stroke="#3371B7" stroke-linecap="round" d="M43.5,30.64l-0.15,0.34c-0.22,0.49,0.21,1.01,0.73,0.9
			c0.26-0.06,0.53,0.05,0.68,0.27l0.14,0.21c0.34,0.5,1.03,0.6,1.49,0.21l0.02-0.02c0.29-0.24,0.68-0.31,1.03-0.18l0.85,0.32
			c0.39,0.15,0.82,0.13,1.2-0.04l0.45-0.2c0.41-0.18,0.88-0.18,1.3,0l0.45,0.2c0.37,0.17,0.81,0.15,1.17-0.05l0.21-0.12
			c0.34-0.19,0.77-0.15,1.07,0.1l0.23,0.19c0.33,0.27,0.82,0.19,1.04-0.18l0.1-0.16c0.1-0.16-0.03-0.33,0.16-0.35
			c0.45-0.04,1.25-0.32,1.09-0.74l-0.41-1.08"/>
		<path fill="none" stroke="#3371B7" stroke-linecap="round" d="M43.5,32.15c-0.11,0.25-0.27,0.83,0,1.13
			c0.34,0.38,3.04,1.13,6.42,1.13c2.21,0,4.58-0.34,5.98-0.6c0.49-0.09,0.94-0.45,0.83-0.94c-0.05-0.23-0.17-0.49-0.39-0.73"/>
		<path fill="none" stroke="#3371B7" stroke-linecap="round" d="M43.5,33.29c0,0.5,0.64,2.35,1.35,2.65
			c1.81,0.76,5.73,0.67,8.13,0.53c1.29-0.08,2.5-0.7,3.15-1.81c0.3-0.51,0.55-1.03,0.55-1.37"/>
		<ellipse fill="#3371B7" cx="51.62" cy="26.48" rx="0.34" ry="0.38"/>
		<ellipse fill="#3371B7" cx="52.97" cy="24.96" rx="0.34" ry="0.38"/>
		<ellipse fill="#3371B7" cx="52.97" cy="27.23" rx="0.34" ry="0.38"/>
		<ellipse fill="#3371B7" cx="54.32" cy="26.48" rx="0.34" ry="0.38"/>
		<ellipse fill="#3371B7" cx="50.94" cy="24.96" rx="0.34" ry="0.38"/>
	</g>
	<g>
		<path fill="none" stroke="#3371B7" d="M24.17,31.03v-7.56c0.11,0.11,0.82,0.9,2.75,3.1c2.47-1.65,5.61-0.69,6.86,0l2.4-3.1v7.12
			c0,1.22-0.14,2.48-0.89,3.44c-0.97,1.25-2.67,2.53-5.29,2.53c-2.85,0-4.49-1.51-5.29-2.86C24.24,32.91,24.17,31.96,24.17,31.03z"
			/>
		<path fill="none" stroke="#3371B7" stroke-width="1" stroke-linecap="round" stroke-miterlimit="4" d="M21.22,30.05l5.38,1.2"/>
		<path fill="none" stroke="#3371B7" stroke-width="1" stroke-linecap="round" stroke-miterlimit="4" d="M21.22,34.11l5.38-1.2"/>
		<path fill="none" stroke="#3371B7" stroke-width="1" stroke-linecap="round" stroke-miterlimit="4" d="M38.78,30.05l-5.38,1.2"/>
		<path fill="none" stroke="#3371B7" stroke-width="1" stroke-linecap="round" stroke-miterlimit="4" d="M38.78,34.11l-5.38-1.2"/>
		<path fill-rule="evenodd" clip-rule="evenodd" fill="#3371B7" d="M29.51,32.44l-0.54-0.75c-0.19-0.27,0-0.64,0.33-0.64h1.39
			c0.33,0,0.52,0.37,0.33,0.64l-0.69,0.96l0.02,0.01c-0.72,1.24-2.56,1.09-3.07-0.26l-0.07-0.18c-0.08-0.21,0.03-0.44,0.24-0.52
			c0.21-0.08,0.44,0.03,0.52,0.24l0.07,0.18C28.28,32.75,29.08,32.88,29.51,32.44z"/>
		<path fill="none" stroke="#3371B7" stroke-linecap="round" d="M32.4,32.08l-0.07,0.18c-0.38,1.02-1.79,1.14-2.33,0.19"/>
		<ellipse fill="#3371B7" cx="27.6" cy="29.67" rx="0.69" ry="0.69"/>
		<ellipse fill="#3371B7" cx="32.4" cy="29.67" rx="0.69" ry="0.69"/>
	</g>
	<g>
		<g>
			<path fill="#C0C0BF" d="M10,43.05c-3.84,0-6.96,3.12-6.96,6.96c0,3.84,3.12,6.96,6.96,6.96c3.84,0,6.96-3.12,6.96-6.96
				C16.96,46.17,13.84,43.05,10,43.05z M10,56.19c-3.41,0-6.18-2.77-6.18-6.18c0-3.41,2.77-6.18,6.18-6.18
				c3.41,0,6.18,2.77,6.18,6.18C16.18,53.42,13.41,56.19,10,56.19z M14.58,51.22c-0.07-0.1-0.19-0.16-0.32-0.16l-8.52,0
				c-0.13,0-0.25,0.06-0.32,0.16c-0.07,0.1-0.09,0.24-0.05,0.36c0.69,1.97,2.55,3.29,4.63,3.29c2.08,0,3.94-1.32,4.63-3.29
				C14.67,51.46,14.65,51.33,14.58,51.22L14.58,51.22z M10,54.08c-1.56,0-2.97-0.88-3.67-2.24h7.34C12.97,53.2,11.56,54.08,10,54.08
				L10,54.08z M7.22,49.47c0.63,0,1.15-0.51,1.15-1.15c0-0.63-0.51-1.15-1.15-1.15c-0.63,0-1.15,0.51-1.15,1.15
				C6.07,48.95,6.59,49.47,7.22,49.47z M7.22,47.95c0.2,0,0.37,0.16,0.37,0.37c0,0.2-0.16,0.36-0.37,0.36
				c-0.2,0-0.37-0.16-0.37-0.37C6.85,48.12,7.02,47.95,7.22,47.95z M12.78,49.47c0.63,0,1.15-0.51,1.15-1.15
				c0-0.63-0.51-1.15-1.15-1.15c-0.63,0-1.15,0.51-1.15,1.15C11.63,48.95,12.15,49.47,12.78,49.47z M12.78,47.95
				c0.2,0,0.37,0.16,0.37,0.37c0,0.2-0.16,0.36-0.37,0.36s-0.37-0.16-0.37-0.37C12.42,48.12,12.58,47.95,12.78,47.95z"/>
		</g>
	</g>
	<g>
		<g>
			<path fill="none" stroke="#C0C0BF" d="M64.06,53.42l2.33-0.01c0.21,0,0.37,0.17,0.37,0.37v2.11c0,0.21-0.17,0.37-0.37,0.37h-2.33
				c-0.21,0-0.37-0.17-0.37-0.37v-2.1C63.69,53.58,63.85,53.42,64.06,53.42z"/>
			<path fill="none" stroke="#C0C0BF" d="M73.49,53.46h2.45c0.21,0,0.37,0.17,0.37,0.37v2.05c0,0.21-0.17,0.37-0.37,0.37h-2.42
				c-0.2,0-0.37-0.16-0.37-0.37l-0.03-2.05C73.12,53.63,73.29,53.46,73.49,53.46z"/>
			<path fill="none" stroke="#C0C0BF" d="M63.69,48.41H76.3v4.99H63.69V48.41z"/>
			<path fill="none" stroke="#C0C0BF" d="M65.54,43.63h8.9c1.03,0,1.86,0.83,1.86,1.86v3.13H63.69v-3.13
				C63.69,44.47,64.52,43.63,65.54,43.63z"/>
			<ellipse fill="#C0C0BF" cx="66.18" cy="50.9" rx="0.95" ry="0.95"/>
			<ellipse fill="#C0C0BF" cx="73.81" cy="50.9" rx="0.95" ry="0.95"/>
		</g>
	</g>
	<g>
		<g>
			<path fill="none" stroke="#C0C0BF" d="M96.45,50.02c0,3.58-2.89,6.48-6.45,6.48s-6.45-2.9-6.45-6.48c0-3.58,2.89-6.48,6.45-6.48
				S96.45,46.44,96.45,50.02z"/>
			<path fill="none" stroke="#C0C0BF" d="M96.26,48.64c0.01,0.04,0.02,0.08,0.03,0.12c-0.87,0.07-2.94,0.1-4.64-1.15
				c-1.07-0.79-1.96-1.72-2.59-2.52c-0.31-0.4-0.56-0.76-0.72-1.05c-0.05-0.08-0.08-0.15-0.12-0.22c0.46-0.09,1.2-0.18,2.04-0.15
				c1.17,0.04,2.48,0.31,3.49,1.06c1.03,0.76,1.7,1.83,2.1,2.75C96.07,47.93,96.19,48.34,96.26,48.64z"/>
			<path fill="none" stroke="#C0C0BF" d="M83.98,52.17c-0.02-0.04-0.03-0.08-0.04-0.12c0.86-0.17,2.91-0.42,4.73,0.64
				c1.13,0.65,1.91,1.51,2.43,2.27c0.36,0.53,0.58,1.01,0.7,1.32c-0.38,0.12-0.97,0.25-1.68,0.28c-0.96,0.04-2.12-0.13-3.23-0.77
				c-1.11-0.64-1.89-1.64-2.39-2.5C84.25,52.85,84.08,52.45,83.98,52.17z"/>
		</g>
	</g>
	<g>
		<g>
			<path fill="none" stroke="#C0C0BF" stroke-linecap="round" d="M116.26,46.8l-1.39,1.99l-0.78-0.8l-0.64-0.65l-0.01,0.91
				l-0.07,8.25h-6.76l-0.08-8.25l-0.01-0.91l-0.63,0.65l-0.78,0.8l-1.4-2.01l2.58-2.9c0.07-0.08,0.17-0.13,0.28-0.13h1.32l0.39,0.7
				c0.73,1.32,2.64,1.28,3.31-0.07l0.31-0.63h1.15c0.1,0,0.2,0.04,0.27,0.11l0.26-0.26l-0.26,0.26L116.26,46.8z"/>
			<path fill="none" stroke="#C0C0BF" d="M110.12,47.73h2.01v0.94c0,0.37-0.45,0.67-1.01,0.67c-0.56,0-1.01-0.3-1.01-0.67V47.73z"/>
		</g>
	</g>
	<g>
		<g>
			<path fill="none" stroke="#C0C0BF" d="M126.82,54.34c0,1.25-1.01,2.25-2.24,2.25s-2.24-1.01-2.24-2.25s1.01-2.25,2.24-2.25
				S126.82,53.09,126.82,54.34z"/>
			<path fill="none" stroke="#C0C0BF" d="M137.64,54.34c0,1.25-1.01,2.25-2.24,2.25c-1.24,0-2.24-1.01-2.24-2.25
				s1.01-2.25,2.24-2.25C136.64,52.08,137.64,53.09,137.64,54.34z"/>
			<path fill="none" stroke="#C0C0BF" d="M126.84,44.42v9.92"/>
			<path fill="none" stroke="#C0C0BF" d="M137.66,44.42v9.92"/>
			<path fill="none" stroke="#C0C0BF" d="M126.84,43.52h10.82v2.7h-10.82V43.52z"/>
		</g>
	</g>
	<g>
		<g>
			<path fill="#C0C0BF" d="M170.77,43.08l-0.05,0.02c-0.24-0.03-0.49-0.04-0.74-0.04c-2.14,0-4.04,0.97-5.32,2.49l-0.05,0.02
				l-0.12-0.14l-0.99-1.18l-0.3,3.4l3.4,0.3l-1.08-1.29l-0.08-0.1l0.08-0.1c1.15-1.45,2.99-2.31,4.97-2.13h0
				c3.16,0.28,5.49,3.09,5.16,6.26c-0.31,3.01-3.07,5.32-6.09,5.1c-3.12-0.23-5.45-2.93-5.26-6.03l-1.26-0.11
				c-0.25,3.76,2.55,7.06,6.33,7.39c3.9,0.35,7.33-2.58,7.57-6.51C177.17,46.78,174.4,43.49,170.77,43.08z"/>
			<path fill="#C0C0BF" d="M170.27,47.42c0-0.34-0.28-0.63-0.63-0.63c-0.35,0-0.63,0.28-0.63,0.63v3.18c0,0.17,0.07,0.32,0.19,0.44
				c0.12,0.11,0.27,0.18,0.45,0.18h2.37c0.35,0,0.63-0.28,0.63-0.63c0-0.35-0.28-0.63-0.63-0.63h-1.58h-0.16V49.8V47.42z"/>
		</g>
	</g>
	<g>
		<g>
			<path fill="none" stroke="#C0C0BF" d="M186.16,43.44h7.68c1.5,0,2.71,1.21,2.71,2.71v7.74c0,1.5-1.21,2.71-2.71,2.71h-7.68
				c-1.5,0-2.71-1.21-2.71-2.71v-7.74C183.45,44.65,184.66,43.44,186.16,43.44z"/>
			<ellipse fill="#C0C0BF" cx="185.98" cy="48.91" rx="0.73" ry="0.73"/>
			<ellipse fill="#C0C0BF" cx="194.02" cy="46.72" rx="0.73" ry="0.73"/>
			<path fill="none" stroke="#C0C0BF" stroke-linecap="round" d="M185.98,53.31l0.4-0.27c0.44-0.29,0.99-0.34,1.47-0.14l1.01,0.43
				c0.48,0.21,1.04,0.16,1.47-0.14l0.79-0.53c0.44-0.29,0.99-0.34,1.47-0.14l1.78,0.77"/>
		</g>
	</g>
	<path fill="#C0C0BF" d="M147.66,43.33c-1.26,0.03-2.5,0.35-3.64,0.99c-0.15,0.08-0.25,0.24-0.25,0.4v11.6
		c0,0.26,0.07,0.47,0.29,0.47c0.64,0,0.48-0.38,0.48-0.64v-5.68c0.66-0.34,3.15-1.1,5.78-0.09c1.57,0.6,3.48,0.72,4.31,0.68
		c0.82-0.04,1.33-0.27,1.33-0.27c0.16-0.08,0.27-0.24,0.27-0.41v-5.65c0-0.16-0.1-0.32-0.26-0.41s-0.37-0.09-0.53-0.01
		c0,0-0.21,0.12-0.86,0.15c-0.65,0.03-2.39-0.06-3.84-0.6c-0.82-0.3-1.68-0.47-2.54-0.51C148.02,43.33,147.84,43.32,147.66,43.33z
		 M147.73,44.01c0.14,0,0.28,0,0.42,0c0.73,0.03,1.47,0.18,2.18,0.44c1.58,0.58,3.49,0.71,4.31,0.67c0.22-0.01,0.79-0.05,0.96-0.08
		v5.17c-0.14,0.03-0.74,0.06-1.02,0.08c-0.65,0.03-2.39-0.06-3.83-0.61c-2.53-0.96-5.05-0.54-6.2-0.08v-4.9
		C145.46,44.25,146.74,44.03,147.73,44.01z"/>
	<g>
		<path fill="none" stroke="#C0C0BF" d="M48.07,43.47h3.72c2.49,0,4.5,2.02,4.5,4.5c0,0.5-0.41,0.91-0.91,0.91H44.47
			c-0.5,0-0.91-0.41-0.91-0.91C43.56,45.49,45.58,43.47,48.07,43.47z"/>
		<path fill="none" stroke="#C0C0BF" stroke-linecap="round" d="M43.5,48.75c-0.23,0.13-0.52,1.16,0,1.51
			c1.41,0.95,8.46,0.84,11.35,0.56c0.77-0.07,1.64-0.43,1.72-1.19c0.03-0.3-0.1-0.62-0.56-0.88"/>
		<path fill="none" stroke="#C0C0BF" stroke-linecap="round" d="M43.5,50.64l-0.15,0.34c-0.22,0.49,0.21,1.01,0.73,0.9
			c0.26-0.06,0.53,0.05,0.68,0.27l0.14,0.21c0.34,0.5,1.03,0.6,1.49,0.21l0.02-0.02c0.29-0.24,0.68-0.31,1.03-0.18l0.85,0.32
			c0.39,0.15,0.82,0.13,1.2-0.04l0.45-0.2c0.41-0.18,0.88-0.18,1.3,0l0.45,0.2c0.37,0.17,0.81,0.15,1.17-0.05l0.21-0.12
			c0.34-0.19,0.77-0.15,1.07,0.1l0.23,0.19c0.33,0.27,0.82,0.19,1.04-0.18l0.1-0.16c0.1-0.16-0.03-0.33,0.16-0.35
			c0.45-0.04,1.25-0.32,1.09-0.74l-0.41-1.08"/>
		<path fill="none" stroke="#C0C0BF" stroke-linecap="round" d="M43.5,52.15c-0.11,0.25-0.27,0.83,0,1.13
			c0.34,0.38,3.04,1.13,6.42,1.13c2.21,0,4.58-0.34,5.98-0.6c0.49-0.09,0.94-0.45,0.83-0.94c-0.05-0.23-0.17-0.49-0.39-0.73"/>
		<path fill="none" stroke="#C0C0BF" stroke-linecap="round" d="M43.5,53.29c0,0.5,0.64,2.35,1.35,2.65
			c1.81,0.76,5.73,0.67,8.13,0.53c1.29-0.08,2.5-0.7,3.15-1.81c0.3-0.51,0.55-1.03,0.55-1.37"/>
		<ellipse fill="#C0C0BF" cx="51.62" cy="46.48" rx="0.34" ry="0.38"/>
		<ellipse fill="#C0C0BF" cx="52.97" cy="44.96" rx="0.34" ry="0.38"/>
		<ellipse fill="#C0C0BF" cx="52.97" cy="47.23" rx="0.34" ry="0.38"/>
		<ellipse fill="#C0C0BF" cx="54.32" cy="46.48" rx="0.34" ry="0.38"/>
		<ellipse fill="#C0C0BF" cx="50.94" cy="44.96" rx="0.34" ry="0.38"/>
	</g>
	<g>
		<path fill="none" stroke="#C0C0BF" d="M24.17,51.03v-7.56c0.11,0.11,0.82,0.9,2.75,3.1c2.47-1.65,5.61-0.69,6.86,0l2.4-3.1v7.12
			c0,1.22-0.14,2.48-0.89,3.44c-0.97,1.25-2.67,2.53-5.29,2.53c-2.85,0-4.49-1.51-5.29-2.86C24.24,52.91,24.17,51.96,24.17,51.03z"
			/>
		<path fill="none" stroke="#C0C0BF" stroke-width="1" stroke-linecap="round" stroke-miterlimit="4" d="M21.22,50.05l5.38,1.2"/>
		<path fill="none" stroke="#C0C0BF" stroke-width="1" stroke-linecap="round" stroke-miterlimit="4" d="M21.22,54.11l5.38-1.2"/>
		<path fill="none" stroke="#C0C0BF" stroke-width="1" stroke-linecap="round" stroke-miterlimit="4" d="M38.78,50.05l-5.38,1.2"/>
		<path fill="none" stroke="#C0C0BF" stroke-width="1" stroke-linecap="round" stroke-miterlimit="4" d="M38.78,54.11l-5.38-1.2"/>
		<path fill-rule="evenodd" clip-rule="evenodd" fill="#C0C0BF" d="M29.51,52.44l-0.54-0.75c-0.19-0.27,0-0.64,0.33-0.64h1.39
			c0.33,0,0.52,0.37,0.33,0.64l-0.69,0.96l0.02,0.01c-0.72,1.24-2.56,1.09-3.07-0.26l-0.07-0.18c-0.08-0.21,0.03-0.44,0.24-0.52
			c0.21-0.08,0.44,0.03,0.52,0.24l0.07,0.18C28.28,52.75,29.08,52.88,29.51,52.44z"/>
		<path fill="none" stroke="#C0C0BF" stroke-linecap="round" d="M32.4,52.08l-0.07,0.18c-0.38,1.02-1.79,1.14-2.33,0.19"/>
		<ellipse fill="#C0C0BF" cx="27.6" cy="49.67" rx="0.69" ry="0.69"/>
		<ellipse fill="#C0C0BF" cx="32.4" cy="49.67" rx="0.69" ry="0.69"/>
	</g>
	<g>
		<g>
			<path fill="#6AA9DD" d="M10,63.05c-3.84,0-6.96,3.12-6.96,6.96c0,3.84,3.12,6.96,6.96,6.96c3.84,0,6.96-3.12,6.96-6.96
				C16.96,66.17,13.84,63.05,10,63.05z M10,76.19c-3.41,0-6.18-2.77-6.18-6.18c0-3.41,2.77-6.18,6.18-6.18
				c3.41,0,6.18,2.77,6.18,6.18C16.18,73.42,13.41,76.19,10,76.19z M14.58,71.22c-0.07-0.1-0.19-0.16-0.32-0.16l-8.52,0
				c-0.13,0-0.25,0.06-0.32,0.16c-0.07,0.1-0.09,0.24-0.05,0.36c0.69,1.97,2.55,3.29,4.63,3.29c2.08,0,3.94-1.32,4.63-3.29
				C14.67,71.46,14.65,71.33,14.58,71.22L14.58,71.22z M10,74.08c-1.56,0-2.97-0.88-3.67-2.24h7.34C12.97,73.2,11.56,74.08,10,74.08
				L10,74.08z M7.22,69.47c0.63,0,1.15-0.51,1.15-1.15c0-0.63-0.51-1.15-1.15-1.15c-0.63,0-1.15,0.51-1.15,1.15
				C6.07,68.95,6.59,69.47,7.22,69.47z M7.22,67.95c0.2,0,0.37,0.16,0.37,0.37c0,0.2-0.16,0.36-0.37,0.36
				c-0.2,0-0.37-0.16-0.37-0.37C6.85,68.12,7.02,67.95,7.22,67.95z M12.78,69.47c0.63,0,1.15-0.51,1.15-1.15
				c0-0.63-0.51-1.15-1.15-1.15c-0.63,0-1.15,0.51-1.15,1.15C11.63,68.95,12.15,69.47,12.78,69.47z M12.78,67.95
				c0.2,0,0.37,0.16,0.37,0.37c0,0.2-0.16,0.36-0.37,0.36s-0.37-0.16-0.37-0.37C12.42,68.12,12.58,67.95,12.78,67.95z"/>
		</g>
	</g>
	<g>
		<g>
			<path fill="none" stroke="#6AA9DD" d="M64.06,73.42l2.33-0.01c0.21,0,0.37,0.17,0.37,0.37v2.11c0,0.21-0.17,0.37-0.37,0.37h-2.33
				c-0.21,0-0.37-0.17-0.37-0.37v-2.1C63.69,73.58,63.85,73.42,64.06,73.42z"/>
			<path fill="none" stroke="#6AA9DD" d="M73.49,73.46h2.45c0.21,0,0.37,0.17,0.37,0.37v2.05c0,0.21-0.17,0.37-0.37,0.37h-2.42
				c-0.2,0-0.37-0.16-0.37-0.37l-0.03-2.05C73.12,73.63,73.29,73.46,73.49,73.46z"/>
			<path fill="none" stroke="#6AA9DD" d="M63.69,68.41H76.3v4.99H63.69V68.41z"/>
			<path fill="none" stroke="#6AA9DD" d="M65.54,63.63h8.9c1.03,0,1.86,0.83,1.86,1.86v3.13H63.69v-3.13
				C63.69,64.47,64.52,63.63,65.54,63.63z"/>
			<ellipse fill="#6AA9DD" cx="66.18" cy="70.9" rx="0.95" ry="0.95"/>
			<ellipse fill="#6AA9DD" cx="73.81" cy="70.9" rx="0.95" ry="0.95"/>
		</g>
	</g>
	<g>
		<g>
			<path fill="none" stroke="#6AA9DD" d="M96.45,70.02c0,3.58-2.89,6.48-6.45,6.48s-6.45-2.9-6.45-6.48c0-3.58,2.89-6.48,6.45-6.48
				S96.45,66.44,96.45,70.02z"/>
			<path fill="none" stroke="#6AA9DD" d="M96.26,68.64c0.01,0.04,0.02,0.08,0.03,0.12c-0.87,0.07-2.94,0.1-4.64-1.15
				c-1.07-0.79-1.96-1.72-2.59-2.52c-0.31-0.4-0.56-0.76-0.72-1.05c-0.05-0.08-0.08-0.15-0.12-0.22c0.46-0.09,1.2-0.18,2.04-0.15
				c1.17,0.04,2.48,0.31,3.49,1.06c1.03,0.76,1.7,1.83,2.1,2.75C96.07,67.93,96.19,68.34,96.26,68.64z"/>
			<path fill="none" stroke="#6AA9DD" d="M83.98,72.17c-0.02-0.04-0.03-0.08-0.04-0.12c0.86-0.17,2.91-0.42,4.73,0.64
				c1.13,0.65,1.91,1.51,2.43,2.27c0.36,0.53,0.58,1.01,0.7,1.32c-0.38,0.12-0.97,0.25-1.68,0.28c-0.96,0.04-2.12-0.13-3.23-0.77
				c-1.11-0.64-1.89-1.64-2.39-2.5C84.25,72.85,84.08,72.45,83.98,72.17z"/>
		</g>
	</g>
	<g>
		<g>
			<path fill="none" stroke="#6AA9DD" stroke-linecap="round" d="M116.26,66.8l-1.39,1.99l-0.78-0.8l-0.64-0.65l-0.01,0.91
				l-0.07,8.25h-6.76l-0.08-8.25l-0.01-0.91l-0.63,0.65l-0.78,0.8l-1.4-2.01l2.58-2.9c0.07-0.08,0.17-0.13,0.28-0.13h1.32l0.39,0.7
				c0.73,1.32,2.64,1.28,3.31-0.07l0.31-0.63h1.15c0.1,0,0.2,0.04,0.27,0.11l0.26-0.26l-0.26,0.26L116.26,66.8z"/>
			<path fill="none" stroke="#6AA9DD" d="M110.12,67.73h2.01v0.94c0,0.37-0.45,0.67-1.01,0.67c-0.56,0-1.01-0.3-1.01-0.67V67.73z"/>
		</g>
	</g>
	<g>
		<g>
			<path fill="none" stroke="#6AA9DD" d="M126.82,74.34c0,1.25-1.01,2.25-2.24,2.25s-2.24-1.01-2.24-2.25s1.01-2.25,2.24-2.25
				S126.82,73.09,126.82,74.34z"/>
			<path fill="none" stroke="#6AA9DD" d="M137.64,74.34c0,1.25-1.01,2.25-2.24,2.25c-1.24,0-2.24-1.01-2.24-2.25
				s1.01-2.25,2.24-2.25C136.64,72.08,137.64,73.09,137.64,74.34z"/>
			<path fill="none" stroke="#6AA9DD" d="M126.84,64.42v9.92"/>
			<path fill="none" stroke="#6AA9DD" d="M137.66,64.42v9.92"/>
			<path fill="none" stroke="#6AA9DD" d="M126.84,63.52h10.82v2.7h-10.82V63.52z"/>
		</g>
	</g>
	<g>
		<g>
			<path fill="#6AA9DD" d="M170.77,63.08l-0.05,0.02c-0.24-0.03-0.49-0.04-0.74-0.04c-2.14,0-4.04,0.97-5.32,2.49l-0.05,0.02
				l-0.12-0.14l-0.99-1.18l-0.3,3.4l3.4,0.3l-1.08-1.29l-0.08-0.1l0.08-0.1c1.15-1.45,2.99-2.31,4.97-2.13h0
				c3.16,0.28,5.49,3.09,5.16,6.26c-0.31,3.01-3.07,5.32-6.09,5.1c-3.12-0.23-5.45-2.93-5.26-6.03l-1.26-0.11
				c-0.25,3.76,2.55,7.06,6.33,7.39c3.9,0.35,7.33-2.58,7.57-6.51C177.17,66.78,174.4,63.49,170.77,63.08z"/>
			<path fill="#6AA9DD" d="M170.27,67.42c0-0.34-0.28-0.63-0.63-0.63c-0.35,0-0.63,0.28-0.63,0.63v3.18c0,0.17,0.07,0.32,0.19,0.44
				c0.12,0.11,0.27,0.18,0.45,0.18h2.37c0.35,0,0.63-0.28,0.63-0.63c0-0.35-0.28-0.63-0.63-0.63h-1.58h-0.16V69.8V67.42z"/>
		</g>
	</g>
	<g>
		<g>
			<path fill="none" stroke="#6AA9DD" d="M186.16,63.44h7.68c1.5,0,2.71,1.21,2.71,2.71v7.74c0,1.5-1.21,2.71-2.71,2.71h-7.68
				c-1.5,0-2.71-1.21-2.71-2.71v-7.74C183.45,64.65,184.66,63.44,186.16,63.44z"/>
			<ellipse fill="#6AA9DD" cx="185.98" cy="68.91" rx="0.73" ry="0.73"/>
			<ellipse fill="#6AA9DD" cx="194.02" cy="66.72" rx="0.73" ry="0.73"/>
			<path fill="none" stroke="#6AA9DD" stroke-linecap="round" d="M185.98,73.31l0.4-0.27c0.44-0.29,0.99-0.34,1.47-0.14l1.01,0.43
				c0.48,0.21,1.04,0.16,1.47-0.14l0.79-0.53c0.44-0.29,0.99-0.34,1.47-0.14l1.78,0.77"/>
		</g>
	</g>
	<path fill="#6AA9DD" d="M147.66,63.33c-1.26,0.03-2.5,0.35-3.64,0.99c-0.15,0.08-0.25,0.24-0.25,0.4v11.6
		c0,0.26,0.07,0.47,0.29,0.47c0.64,0,0.48-0.38,0.48-0.64v-5.68c0.66-0.34,3.15-1.1,5.78-0.09c1.57,0.6,3.48,0.72,4.31,0.68
		c0.82-0.04,1.33-0.27,1.33-0.27c0.16-0.08,0.27-0.24,0.27-0.41v-5.65c0-0.16-0.1-0.32-0.26-0.41s-0.37-0.09-0.53-0.01
		c0,0-0.21,0.12-0.86,0.15c-0.65,0.03-2.39-0.06-3.84-0.6c-0.82-0.3-1.68-0.47-2.54-0.51C148.02,63.33,147.84,63.32,147.66,63.33z
		 M147.73,64.01c0.14,0,0.28,0,0.42,0c0.73,0.03,1.47,0.18,2.18,0.44c1.58,0.58,3.49,0.71,4.31,0.67c0.22-0.01,0.79-0.05,0.96-0.08
		v5.17c-0.14,0.03-0.74,0.06-1.02,0.08c-0.65,0.03-2.39-0.06-3.83-0.61c-2.53-0.96-5.05-0.54-6.2-0.08v-4.9
		C145.46,64.25,146.74,64.03,147.73,64.01z"/>
	<g>
		<path fill="none" stroke="#6AA9DD" d="M48.07,63.47h3.72c2.49,0,4.5,2.02,4.5,4.5c0,0.5-0.41,0.91-0.91,0.91H44.47
			c-0.5,0-0.91-0.41-0.91-0.91C43.56,65.49,45.58,63.47,48.07,63.47z"/>
		<path fill="none" stroke="#6AA9DD" stroke-linecap="round" d="M43.5,68.75c-0.23,0.13-0.52,1.16,0,1.51
			c1.41,0.95,8.46,0.84,11.35,0.56c0.77-0.07,1.64-0.43,1.72-1.19c0.03-0.3-0.1-0.62-0.56-0.88"/>
		<path fill="none" stroke="#6AA9DD" stroke-linecap="round" d="M43.5,70.64l-0.15,0.34c-0.22,0.49,0.21,1.01,0.73,0.9
			c0.26-0.06,0.53,0.05,0.68,0.27l0.14,0.21c0.34,0.5,1.03,0.6,1.49,0.21l0.02-0.02c0.29-0.24,0.68-0.31,1.03-0.18l0.85,0.32
			c0.39,0.15,0.82,0.13,1.2-0.04l0.45-0.2c0.41-0.18,0.88-0.18,1.3,0l0.45,0.2c0.37,0.17,0.81,0.15,1.17-0.05l0.21-0.12
			c0.34-0.19,0.77-0.15,1.07,0.1l0.23,0.19c0.33,0.27,0.82,0.19,1.04-0.18l0.1-0.16c0.1-0.16-0.03-0.33,0.16-0.35
			c0.45-0.04,1.25-0.32,1.09-0.74l-0.41-1.08"/>
		<path fill="none" stroke="#6AA9DD" stroke-linecap="round" d="M43.5,72.15c-0.11,0.25-0.27,0.83,0,1.13
			c0.34,0.38,3.04,1.13,6.42,1.13c2.21,0,4.58-0.34,5.98-0.6c0.49-0.09,0.94-0.45,0.83-0.94c-0.05-0.23-0.17-0.49-0.39-0.73"/>
		<path fill="none" stroke="#6AA9DD" stroke-linecap="round" d="M43.5,73.29c0,0.5,0.64,2.35,1.35,2.65
			c1.81,0.76,5.73,0.67,8.13,0.53c1.29-0.08,2.5-0.7,3.15-1.81c0.3-0.51,0.55-1.03,0.55-1.37"/>
		<ellipse fill="#6AA9DD" cx="51.62" cy="66.48" rx="0.34" ry="0.38"/>
		<ellipse fill="#6AA9DD" cx="52.97" cy="64.96" rx="0.34" ry="0.38"/>
		<ellipse fill="#6AA9DD" cx="52.97" cy="67.23" rx="0.34" ry="0.38"/>
		<ellipse fill="#6AA9DD" cx="54.32" cy="66.48" rx="0.34" ry="0.38"/>
		<ellipse fill="#6AA9DD" cx="50.94" cy="64.96" rx="0.34" ry="0.38"/>
	</g>
	<g>
		<path fill="none" stroke="#6AA9DD" d="M24.17,71.03v-7.56c0.11,0.11,0.82,0.9,2.75,3.1c2.47-1.65,5.61-0.69,6.86,0l2.4-3.1v7.12
			c0,1.22-0.14,2.48-0.89,3.44c-0.97,1.25-2.67,2.53-5.29,2.53c-2.85,0-4.49-1.51-5.29-2.86C24.24,72.91,24.17,71.96,24.17,71.03z"
			/>
		<path fill="none" stroke="#6AA9DD" stroke-width="1" stroke-linecap="round" stroke-miterlimit="4" d="M21.22,70.05l5.38,1.2"/>
		<path fill="none" stroke="#6AA9DD" stroke-width="1" stroke-linecap="round" stroke-miterlimit="4" d="M21.22,74.11l5.38-1.2"/>
		<path fill="none" stroke="#6AA9DD" stroke-width="1" stroke-linecap="round" stroke-miterlimit="4" d="M38.78,70.05l-5.38,1.2"/>
		<path fill="none" stroke="#6AA9DD" stroke-width="1" stroke-linecap="round" stroke-miterlimit="4" d="M38.78,74.11l-5.38-1.2"/>
		<path fill-rule="evenodd" clip-rule="evenodd" fill="#6AA9DD" d="M29.51,72.44l-0.54-0.75c-0.19-0.27,0-0.64,0.33-0.64h1.39
			c0.33,0,0.52,0.37,0.33,0.64l-0.69,0.96l0.02,0.01c-0.72,1.24-2.56,1.09-3.07-0.26l-0.07-0.18c-0.08-0.21,0.03-0.44,0.24-0.52
			c0.21-0.08,0.44,0.03,0.52,0.24l0.07,0.18C28.28,72.75,29.08,72.88,29.51,72.44z"/>
		<path fill="none" stroke="#6AA9DD" stroke-linecap="round" d="M32.4,72.08l-0.07,0.18c-0.38,1.02-1.79,1.14-2.33,0.19"/>
		<ellipse fill="#6AA9DD" cx="27.6" cy="69.67" rx="0.69" ry="0.69"/>
		<ellipse fill="#6AA9DD" cx="32.4" cy="69.67" rx="0.69" ry="0.69"/>
	</g>
</g>
<g id="People">
	<g>
		<g>
			<path fill="#868686" d="M10,3.04c-3.84,0-6.96,3.12-6.96,6.96c0,3.84,3.12,6.96,6.96,6.96c3.84,0,6.96-3.12,6.96-6.96
				C16.96,6.16,13.84,3.04,10,3.04z M10,16.18c-3.41,0-6.18-2.77-6.18-6.18c0-3.41,2.77-6.18,6.18-6.18c3.41,0,6.18,2.77,6.18,6.18
				C16.18,13.41,13.41,16.18,10,16.18z M14.58,11.21c-0.07-0.1-0.19-0.16-0.32-0.16l-8.52,0c-0.13,0-0.25,0.06-0.32,0.16
				c-0.07,0.1-0.09,0.24-0.05,0.36c0.69,1.97,2.55,3.29,4.63,3.29c2.08,0,3.94-1.32,4.63-3.29C14.67,11.44,14.65,11.31,14.58,11.21
				L14.58,11.21z M10,14.07c-1.56,0-2.97-0.88-3.67-2.24h7.34C12.97,13.19,11.56,14.07,10,14.07L10,14.07z M7.22,9.45
				c0.63,0,1.15-0.51,1.15-1.15c0-0.63-0.51-1.15-1.15-1.15c-0.63,0-1.15,0.51-1.15,1.15C6.07,8.94,6.59,9.45,7.22,9.45z M7.22,7.94
				c0.2,0,0.37,0.16,0.37,0.37c0,0.2-0.16,0.36-0.37,0.36c-0.2,0-0.37-0.16-0.37-0.37C6.85,8.1,7.02,7.94,7.22,7.94z M12.78,9.45
				c0.63,0,1.15-0.51,1.15-1.15c0-0.63-0.51-1.15-1.15-1.15c-0.63,0-1.15,0.51-1.15,1.15C11.63,8.94,12.15,9.45,12.78,9.45z
				 M12.78,7.94c0.2,0,0.37,0.16,0.37,0.37c0,0.2-0.16,0.36-0.37,0.36s-0.37-0.16-0.37-0.37C12.42,8.1,12.58,7.94,12.78,7.94z"/>
		</g>
	</g>
</g>
<g id="Car_00000018935395085413413750000000825273877842775715_">
	<g>
		<g>
			<path fill="none" stroke="#868686" d="M64.06,13.4l2.33-0.01c0.21,0,0.37,0.17,0.37,0.37v2.11c0,0.21-0.17,0.37-0.37,0.37h-2.33
				c-0.21,0-0.37-0.17-0.37-0.37v-2.1C63.69,13.57,63.85,13.4,64.06,13.4z"/>
			<path fill="none" stroke="#868686" d="M73.49,13.45h2.45c0.21,0,0.37,0.17,0.37,0.37v2.05c0,0.21-0.17,0.37-0.37,0.37h-2.42
				c-0.2,0-0.37-0.16-0.37-0.37l-0.03-2.05C73.12,13.62,73.29,13.45,73.49,13.45z"/>
			<path fill="none" stroke="#868686" d="M63.69,8.4H76.3v4.99H63.69V8.4z"/>
			<path fill="none" stroke="#868686" d="M65.54,3.62h8.9c1.03,0,1.86,0.83,1.86,1.86v3.13H63.69V5.48
				C63.69,4.45,64.52,3.62,65.54,3.62z"/>
			<ellipse fill="#868686" cx="66.18" cy="10.89" rx="0.95" ry="0.95"/>
			<ellipse fill="#868686" cx="73.81" cy="10.89" rx="0.95" ry="0.95"/>
		</g>
	</g>
</g>
<g id="Activities">
	<g>
		<g>
			<path fill="none" stroke="#868686" d="M96.45,10.01c0,3.58-2.89,6.48-6.45,6.48s-6.45-2.9-6.45-6.48c0-3.58,2.89-6.48,6.45-6.48
				S96.45,6.43,96.45,10.01z"/>
			<path fill="none" stroke="#868686" d="M96.26,8.62c0.01,0.04,0.02,0.08,0.03,0.12c-0.87,0.07-2.94,0.1-4.64-1.15
				c-1.07-0.79-1.96-1.72-2.59-2.52c-0.31-0.4-0.56-0.76-0.72-1.05c-0.05-0.08-0.08-0.15-0.12-0.22c0.46-0.09,1.2-0.18,2.04-0.15
				c1.17,0.04,2.48,0.31,3.49,1.06c1.03,0.76,1.7,1.83,2.1,2.75C96.07,7.92,96.19,8.33,96.26,8.62z"/>
			<path fill="none" stroke="#868686" d="M83.98,12.15c-0.02-0.04-0.03-0.08-0.04-0.12c0.86-0.17,2.91-0.42,4.73,0.64
				c1.13,0.65,1.91,1.51,2.43,2.27c0.36,0.53,0.58,1.01,0.7,1.32c-0.38,0.12-0.97,0.25-1.68,0.28c-0.96,0.04-2.12-0.13-3.23-0.77
				c-1.11-0.64-1.89-1.64-2.39-2.5C84.25,12.83,84.08,12.44,83.98,12.15z"/>
		</g>
	</g>
</g>
<g id="Objects_00000064312371739130315250000010225889032228632975_">
	<g>
		<g>
			<path fill="none" stroke="#868686" stroke-linecap="round" d="M116.26,6.78l-1.39,1.99l-0.78-0.8l-0.64-0.65l-0.01,0.91
				l-0.07,8.25h-6.76l-0.08-8.25l-0.01-0.91l-0.63,0.65l-0.78,0.8l-1.4-2.01l2.58-2.9c0.07-0.08,0.17-0.13,0.28-0.13h1.32l0.39,0.7
				c0.73,1.32,2.64,1.28,3.31-0.07l0.31-0.63h1.15c0.1,0,0.2,0.04,0.27,0.11l0.26-0.26l-0.26,0.26L116.26,6.78z"/>
			<path fill="none" stroke="#868686" d="M110.12,7.71h2.01v0.94c0,0.37-0.45,0.67-1.01,0.67c-0.56,0-1.01-0.3-1.01-0.67V7.71z"/>
		</g>
	</g>
</g>
<g id="Symbols_00000096746907869929921180000006484812830282582416_">
	<g>
		<g>
			<path fill="none" stroke="#868686" d="M126.82,14.32c0,1.25-1.01,2.25-2.24,2.25s-2.24-1.01-2.24-2.25s1.01-2.25,2.24-2.25
				S126.82,13.07,126.82,14.32z"/>
			<path fill="none" stroke="#868686" d="M137.64,14.32c0,1.25-1.01,2.25-2.24,2.25c-1.24,0-2.24-1.01-2.24-2.25
				s1.01-2.25,2.24-2.25C136.64,12.07,137.64,13.07,137.64,14.32z"/>
			<path fill="none" stroke="#868686" d="M126.84,4.4v9.92"/>
			<path fill="none" stroke="#868686" d="M137.66,4.4v9.92"/>
			<path fill="none" stroke="#868686" d="M126.84,3.5h10.82v2.7h-10.82V3.5z"/>
		</g>
	</g>
</g>
<g id="Recents">
	<g>
		<g>
			<path fill="#868686" d="M170.77,3.07l-0.05,0.02c-0.24-0.03-0.49-0.04-0.74-0.04c-2.14,0-4.04,0.97-5.32,2.49l-0.05,0.02
				l-0.12-0.14l-0.99-1.18l-0.3,3.4l3.4,0.3l-1.08-1.29l-0.08-0.1l0.08-0.1c1.15-1.45,2.99-2.31,4.97-2.13h0
				c3.16,0.28,5.49,3.09,5.16,6.26c-0.31,3.01-3.07,5.32-6.09,5.1c-3.12-0.23-5.45-2.93-5.26-6.03l-1.26-0.11
				c-0.25,3.76,2.55,7.06,6.33,7.39c3.9,0.35,7.33-2.58,7.57-6.51C177.17,6.77,174.4,3.47,170.77,3.07z"/>
			<path fill="#868686" d="M170.27,7.4c0-0.34-0.28-0.63-0.63-0.63c-0.35,0-0.63,0.28-0.63,0.63v3.18c0,0.17,0.07,0.32,0.19,0.44
				c0.12,0.11,0.27,0.18,0.45,0.18h2.37c0.35,0,0.63-0.28,0.63-0.63c0-0.35-0.28-0.63-0.63-0.63h-1.58h-0.16V9.79V7.4z"/>
		</g>
	</g>
</g>
<g id="Custom_00000181087229434302336780000005152277945940674488_">
	<g>
		<g>
			<path fill="none" stroke="#868686" d="M186.16,3.42h7.68c1.5,0,2.71,1.21,2.71,2.71v7.74c0,1.5-1.21,2.71-2.71,2.71h-7.68
				c-1.5,0-2.71-1.21-2.71-2.71V6.13C183.45,4.64,184.66,3.42,186.16,3.42z"/>
			<ellipse fill="#868686" cx="185.98" cy="8.9" rx="0.73" ry="0.73"/>
			<ellipse fill="#868686" cx="194.02" cy="6.7" rx="0.73" ry="0.73"/>
			<path fill="none" stroke="#868686" stroke-linecap="round" d="M185.98,13.3l0.4-0.27c0.44-0.29,0.99-0.34,1.47-0.14l1.01,0.43
				c0.48,0.21,1.04,0.16,1.47-0.14l0.79-0.53c0.44-0.29,0.99-0.34,1.47-0.14l1.78,0.77"/>
		</g>
	</g>
</g>
<g id="Flags">
	<path fill="#868686" d="M147.66,3.31c-1.26,0.03-2.5,0.35-3.64,0.99c-0.15,0.08-0.25,0.24-0.25,0.4v11.6
		c0,0.26,0.07,0.47,0.29,0.47c0.64,0,0.48-0.38,0.48-0.64v-5.68c0.66-0.34,3.15-1.1,5.78-0.09c1.57,0.6,3.48,0.72,4.31,0.68
		c0.82-0.04,1.33-0.27,1.33-0.27c0.16-0.08,0.27-0.24,0.27-0.41V4.69c0-0.16-0.1-0.32-0.26-0.41c-0.16-0.08-0.37-0.09-0.53-0.01
		c0,0-0.21,0.12-0.86,0.15c-0.65,0.03-2.39-0.06-3.84-0.6c-0.82-0.3-1.68-0.47-2.54-0.51C148.02,3.31,147.84,3.31,147.66,3.31z
		 M147.73,4c0.14,0,0.28,0,0.42,0c0.73,0.03,1.47,0.18,2.18,0.44c1.58,0.58,3.49,0.71,4.31,0.67c0.22-0.01,0.79-0.05,0.96-0.08v5.17
		c-0.14,0.03-0.74,0.06-1.02,0.08c-0.65,0.03-2.39-0.06-3.83-0.61c-2.53-0.96-5.05-0.54-6.2-0.08V4.7
		C145.46,4.23,146.74,4.02,147.73,4z"/>
</g>
<g id="Food">
	<g id="Layer_12">
		<g>
			<path fill="none" stroke="#868686" d="M48.07,3.46h3.72c2.49,0,4.5,2.02,4.5,4.5c0,0.5-0.41,0.91-0.91,0.91H44.47
				c-0.5,0-0.91-0.41-0.91-0.91C43.56,5.47,45.58,3.46,48.07,3.46z"/>
			<path fill="none" stroke="#868686" stroke-linecap="round" d="M43.5,8.73c-0.23,0.13-0.52,1.16,0,1.51
				c1.41,0.95,8.46,0.84,11.35,0.56c0.77-0.07,1.64-0.43,1.72-1.19c0.03-0.3-0.1-0.62-0.56-0.88"/>
			<path fill="none" stroke="#868686" stroke-linecap="round" d="M43.5,10.62l-0.15,0.34c-0.22,0.49,0.21,1.01,0.73,0.9
				c0.26-0.06,0.53,0.05,0.68,0.27l0.14,0.21c0.34,0.5,1.03,0.6,1.49,0.21l0.02-0.02c0.29-0.24,0.68-0.31,1.03-0.18l0.85,0.32
				c0.39,0.15,0.82,0.13,1.2-0.04l0.45-0.2c0.41-0.18,0.88-0.18,1.3,0l0.45,0.2c0.37,0.17,0.81,0.15,1.17-0.05l0.21-0.12
				c0.34-0.19,0.77-0.15,1.07,0.1l0.23,0.19c0.33,0.27,0.82,0.19,1.04-0.18l0.1-0.16c0.1-0.16-0.03-0.33,0.16-0.35
				c0.45-0.04,1.25-0.32,1.09-0.74l-0.41-1.08"/>
			<path fill="none" stroke="#868686" stroke-linecap="round" d="M43.5,12.14c-0.11,0.25-0.27,0.83,0,1.13
				c0.34,0.38,3.04,1.13,6.42,1.13c2.21,0,4.58-0.34,5.98-0.6c0.49-0.09,0.94-0.45,0.83-0.94c-0.05-0.23-0.17-0.49-0.39-0.73"/>
			<path fill="none" stroke="#868686" stroke-linecap="round" d="M43.5,13.27c0,0.5,0.64,2.35,1.35,2.65
				c1.81,0.76,5.73,0.67,8.13,0.53c1.29-0.08,2.5-0.7,3.15-1.81c0.3-0.51,0.55-1.03,0.55-1.37"/>
			<ellipse fill="#868686" cx="51.62" cy="6.46" rx="0.34" ry="0.38"/>
			<ellipse fill="#868686" cx="52.97" cy="4.95" rx="0.34" ry="0.38"/>
			<ellipse fill="#868686" cx="52.97" cy="7.22" rx="0.34" ry="0.38"/>
			<ellipse fill="#868686" cx="54.32" cy="6.46" rx="0.34" ry="0.38"/>
			<ellipse fill="#868686" cx="50.94" cy="4.95" rx="0.34" ry="0.38"/>
		</g>
	</g>
</g>
<g id="Animals">
	<g>
		<path fill="none" stroke="#868686" d="M24.17,11.02V3.46c0.11,0.11,0.82,0.9,2.75,3.1c2.47-1.65,5.61-0.69,6.86,0l2.4-3.1v7.12
			c0,1.22-0.14,2.48-0.89,3.44c-0.97,1.25-2.67,2.53-5.29,2.53c-2.85,0-4.49-1.51-5.29-2.86C24.24,12.89,24.17,11.94,24.17,11.02z"
			/>
		<path fill="none" stroke="#868686" stroke-width="1" stroke-linecap="round" stroke-miterlimit="4" d="M21.22,10.04l5.38,1.2"/>
		<path fill="none" stroke="#868686" stroke-width="1" stroke-linecap="round" stroke-miterlimit="4" d="M21.22,14.1l5.38-1.2"/>
		<path fill="none" stroke="#868686" stroke-width="1" stroke-linecap="round" stroke-miterlimit="4" d="M38.78,10.04l-5.38,1.2"/>
		<path fill="none" stroke="#868686" stroke-width="1" stroke-linecap="round" stroke-miterlimit="4" d="M38.78,14.1l-5.38-1.2"/>
		<path fill-rule="evenodd" clip-rule="evenodd" fill="#868686" d="M29.51,12.42l-0.54-0.75c-0.19-0.27,0-0.64,0.33-0.64h1.39
			c0.33,0,0.52,0.37,0.33,0.64l-0.69,0.96l0.02,0.01c-0.72,1.24-2.56,1.09-3.07-0.26l-0.07-0.18c-0.08-0.21,0.03-0.44,0.24-0.52
			c0.21-0.08,0.44,0.03,0.52,0.24l0.07,0.18C28.28,12.74,29.08,12.87,29.51,12.42z"/>
		<path fill="none" stroke="#868686" stroke-linecap="round" d="M32.4,12.07l-0.07,0.18c-0.38,1.02-1.79,1.14-2.33,0.19"/>
		<ellipse fill="#868686" cx="27.6" cy="9.66" rx="0.69" ry="0.69"/>
		<ellipse fill="#868686" cx="32.4" cy="9.66" rx="0.69" ry="0.69"/>
	</g>
</g>
</svg>
