<?xml version="1.0" encoding="utf-8"?>
<!-- Generator: Adobe Illustrator 28.1.0, SVG Export Plug-In . SVG Version: 6.00 Build 0)  -->
<svg version="1.1" id="Layer_1" xmlns="http://www.w3.org/2000/svg" xmlns:xlink="http://www.w3.org/1999/xlink" x="0px" y="0px"
	 width="20px" height="80px" viewBox="0 0 20 80" enable-background="new 0 0 20 80" xml:space="preserve">
<path fill="#868686" d="M5.7,10.4c0,0.1,0.1,0.3,0.2,0.4C6,10.9,6.1,11,6.3,11h3.4v3.4c0,0.1,0.1,0.3,0.2,0.4
	c0.1,0.1,0.2,0.2,0.4,0.2c0.3,0,0.5-0.2,0.5-0.5v-3.4h3.4c0.3,0,0.5-0.2,0.5-0.5s-0.2-0.5-0.5-0.5h-3.4V6.7c0-0.3-0.2-0.5-0.5-0.5
	C9.8,6,9.6,6.2,9.6,6.5v3.4H6.2C5.9,9.9,5.7,10.1,5.7,10.4L5.7,10.4z"/>
<path fill="#3371B7" d="M5.7,30.4c0,0.1,0.1,0.3,0.2,0.4S6.1,31,6.3,31h3.4v3.4c0,0.1,0.1,0.3,0.2,0.4c0.1,0.1,0.2,0.2,0.4,0.2
	c0.3,0,0.5-0.2,0.5-0.5v-3.4h3.4c0.3,0,0.5-0.2,0.5-0.5s-0.2-0.5-0.5-0.5h-3.4v-3.4c0-0.3-0.2-0.5-0.5-0.5s-0.5,0.2-0.5,0.5v3.4H6.2
	C5.9,29.9,5.7,30.1,5.7,30.4L5.7,30.4z"/>
<path fill="#C0C0BF" d="M5.7,50.4c0,0.1,0.1,0.3,0.2,0.4C6,50.9,6.1,51,6.3,51h3.4v3.4c0,0.1,0.1,0.3,0.2,0.4
	c0.1,0.1,0.2,0.2,0.4,0.2c0.3,0,0.5-0.2,0.5-0.5v-3.4h3.4c0.3,0,0.5-0.2,0.5-0.5s-0.2-0.5-0.5-0.5h-3.4v-3.4c0-0.3-0.2-0.5-0.5-0.5
	s-0.5,0.2-0.5,0.5v3.4H6.2C5.9,49.9,5.7,50.1,5.7,50.4L5.7,50.4z"/>
<path fill="#6AA9DD" d="M5.7,70.4c0,0.1,0.1,0.3,0.2,0.4S6.1,71,6.3,71h3.4v3.4c0,0.1,0.1,0.3,0.2,0.4c0.1,0.1,0.2,0.2,0.4,0.2
	c0.3,0,0.5-0.2,0.5-0.5v-3.4h3.4c0.3,0,0.5-0.2,0.5-0.5s-0.2-0.5-0.5-0.5h-3.4v-3.4c0-0.3-0.2-0.5-0.5-0.5s-0.5,0.2-0.5,0.5v3.4H6.4
	C5.9,69.9,5.7,70.1,5.7,70.4L5.7,70.4z"/>
</svg>
