<svg xmlns="http://www.w3.org/2000/svg" viewBox="0 0 470 470"><path d="M401.17 68.83C356.784 24.444 297.771 0 235 0S113.216 24.444 68.83 68.83 0 172.229 0 235s24.444 121.784 68.83 166.17S172.229 470 235 470s121.784-24.444 166.17-68.83S470 297.771 470 235s-24.444-121.784-68.83-166.17zM235 455c-121.309 0-220-98.691-220-220S113.691 15 235 15s220 98.691 220 220-98.691 220-220 220z"/><path d="M382.5 173.979c3.532 0 6.735 1.824 8.568 4.879a7.499 7.499 0 0 0 12.864 0c1.833-3.055 5.036-4.879 8.568-4.879 4.143 0 7.5-3.357 7.5-7.5s-3.357-7.5-7.5-7.5c-5.461 0-10.724 1.829-15 5.039-4.276-3.21-9.539-5.039-15-5.039-4.143 0-7.5 3.357-7.5 7.5s3.357 7.5 7.5 7.5zM322.5 135.459c3.532 0 6.735 1.824 8.568 4.879a7.499 7.499 0 0 0 12.864 0c1.833-3.055 5.036-4.879 8.568-4.879 4.143 0 7.5-3.357 7.5-7.5s-3.357-7.5-7.5-7.5c-5.461 0-10.724 1.829-15 5.039-4.276-3.21-9.539-5.039-15-5.039-4.143 0-7.5 3.357-7.5 7.5s3.357 7.5 7.5 7.5zM117.5 173.979c3.532 0 6.735 1.824 8.568 4.879a7.499 7.499 0 0 0 12.864 0c1.833-3.055 5.036-4.879 8.568-4.879 4.143 0 7.5-3.357 7.5-7.5s-3.357-7.5-7.5-7.5c-5.461 0-10.724 1.829-15 5.039-4.276-3.21-9.539-5.039-15-5.039-4.143 0-7.5 3.357-7.5 7.5s3.357 7.5 7.5 7.5zM436.826 253.173a7.5 7.5 0 0 0-5.443-2.6c-12.664-.4-24.343-7.548-32.041-19.608a7.5 7.5 0 0 0-12.643-.001c-7.974 12.489-20.074 19.652-33.2 19.652-13.089 0-25.177-7.164-33.162-19.656a7.502 7.502 0 0 0-12.635-.004c-8 12.494-20.098 19.66-33.192 19.66-13.098 0-25.189-7.164-33.175-19.656a7.5 7.5 0 0 0-12.64.004c-7.974 12.489-20.069 19.652-33.187 19.652-13.098 0-25.19-7.164-33.176-19.656a7.502 7.502 0 0 0-12.635-.004c-8 12.494-20.098 19.66-33.191 19.66-13.099 0-25.19-7.164-33.175-19.655a7.5 7.5 0 0 0-12.64.004c-7.699 12.061-19.389 19.207-32.07 19.608a7.494 7.494 0 0 0-5.443 2.6 7.497 7.497 0 0 0-1.769 5.767c5.786 49.506 29.545 95.215 66.901 128.706C135.964 421.407 184.509 440 235 440c45.241 0 88.17-14.518 124.145-41.982a7.498 7.498 0 0 0 1.41-10.512 7.496 7.496 0 0 0-10.512-1.41C316.705 411.547 276.924 425 235 425c-93.882 0-173.276-68.424-187.68-160.366 11.265-2.217 21.561-8.215 29.707-17.284 10.49 11.584 24.673 18.267 39.476 18.267 14.808 0 29.002-6.691 39.505-18.291 10.493 11.6 24.685 18.291 39.498 18.291 14.828 0 29.022-6.689 39.511-18.284 10.493 11.595 24.682 18.284 39.491 18.284 14.808 0 29.002-6.691 39.505-18.291 10.493 11.6 24.679 18.291 39.485 18.291 14.826 0 29.018-6.681 39.505-18.264 8.14 9.065 18.422 15.061 29.671 17.278-6.044 38.177-24.008 74.246-51.068 102.269a7.5 7.5 0 1 0 10.791 10.419c31.08-32.185 51.038-74.226 56.198-118.38a7.495 7.495 0 0 0-1.769-5.766z"/><path d="M289.513 310.616c-4.143 0-7.5 3.357-7.5 7.5s3.357 7.5 7.5 7.5h10c4.143 0 7.5-3.357 7.5-7.5s-3.357-7.5-7.5-7.5h-10zM358.49 280.616h-10c-4.143 0-7.5 3.357-7.5 7.5s3.357 7.5 7.5 7.5h10c4.143 0 7.5-3.357 7.5-7.5s-3.357-7.5-7.5-7.5zM111.503 280.616c-4.143 0-7.5 3.357-7.5 7.5s3.357 7.5 7.5 7.5h10c4.143 0 7.5-3.357 7.5-7.5s-3.357-7.5-7.5-7.5h-10zM235 191.25c30.327 0 55-24.673 55-55s-24.673-55-55-55-55 24.673-55 55 24.673 55 55 55zm0-95c22.056 0 40 17.944 40 40s-17.944 40-40 40-40-17.944-40-40 17.944-40 40-40z"/></svg>