<svg xmlns="http://www.w3.org/2000/svg" viewBox="0 0 512 512"><path d="M337.502 61.244c-46.267-19.341-98.094-21.573-145.933-6.282-5.497 1.758-8.528 7.638-6.772 13.134 1.758 5.497 7.64 8.528 13.134 6.772 43.115-13.782 89.819-11.772 131.51 5.657 1.317.55 2.682.811 4.026.811 4.087 0 7.969-2.415 9.644-6.422 2.228-5.324-.284-11.445-5.609-13.67zM368.323 77.252a11.31 11.31 0 0 0-.375-.239c-4.925-3.009-11.356-1.458-14.364 3.467-2.984 4.884-1.483 11.249 3.346 14.29a10.398 10.398 0 0 0 5.587 1.626c3.377 0 6.69-1.633 8.704-4.654 3.201-4.801 1.904-11.289-2.898-14.49zM447.293 161.884c-4.081-4.08-10.698-4.08-14.778 0l-14.629 14.629c-4.08 4.081-4.08 10.698 0 14.778 2.04 2.041 4.715 3.06 7.388 3.06s5.349-1.02 7.389-3.06l14.629-14.629c4.081-4.081 4.081-10.698.001-14.778zM83.999 214.617c-4.081-4.08-10.698-4.08-14.778 0l-14.629 14.629c-4.08 4.081-4.08 10.698 0 14.778 2.04 2.041 4.715 3.06 7.388 3.06s5.349-1.02 7.39-3.06l14.629-14.629c4.081-4.082 4.081-10.698 0-14.778zM115.508 100.235c-4.081-4.08-10.698-4.08-14.778 0l-14.629 14.629c-4.08 4.081-4.08 10.698 0 14.778 2.04 2.041 4.715 3.06 7.388 3.06s5.348-1.02 7.39-3.06l14.629-14.629c4.081-4.081 4.081-10.698 0-14.778zM386.754 116.24h-20.688c-5.771 0-10.449 4.678-10.449 10.449s4.678 10.449 10.449 10.449h20.688c5.771 0 10.449-4.678 10.449-10.449s-4.678-10.449-10.449-10.449zM151.326 161.908l-14.618-14.618c-4.081-4.08-10.698-4.081-14.778 0s-4.08 10.698 0 14.778l14.618 14.618a10.413 10.413 0 0 0 7.388 3.06c2.674 0 5.349-1.02 7.39-3.06 4.081-4.081 4.081-10.698 0-14.778zM411.753 229.241l-14.618-14.617c-4.08-4.081-10.696-4.08-14.777 0s-4.08 10.697 0 14.777l14.618 14.617c2.041 2.041 4.715 3.06 7.388 3.06s5.348-1.021 7.388-3.06c4.083-4.08 4.082-10.696.001-14.777zM318.326 126.607l-14.617-14.617c-4.081-4.08-10.698-4.081-14.778 0s-4.08 10.698 0 14.778l14.617 14.617a10.414 10.414 0 0 0 7.388 3.061 10.42 10.42 0 0 0 7.39-3.061c4.08-4.081 4.08-10.698 0-14.778zM195.194 97.387c-3.904-4.25-10.515-4.528-14.763-.622l-15.22 13.989c-4.249 3.905-4.527 10.515-.622 14.763a10.42 10.42 0 0 0 7.696 3.378c2.528 0 5.063-.911 7.068-2.756l15.22-13.989c4.248-3.905 4.526-10.515.621-14.763zM256.153 145.241H255.865c-5.762 0-10.437 4.665-10.449 10.429-.011 5.771 4.658 10.457 10.429 10.469H256.134c5.762 0 10.438-4.664 10.449-10.429.01-5.771-4.659-10.458-10.43-10.469z"/><path d="M437.019 74.981C388.668 26.628 324.38 0 256 0S123.332 26.628 74.981 74.981C26.629 123.333 0 187.62 0 256c0 68.38 26.628 132.668 74.981 181.019C123.333 485.371 187.62 512 256 512c68.38 0 132.668-26.628 181.019-74.981C485.371 388.667 512 324.38 512 256s-26.628-132.668-74.981-181.019zM256 491.102c-94.256 0-175.718-55.763-213.173-136.024 6.781-.56 13.126-3.458 18.112-8.35 5.756-5.647 9.057-13.495 9.057-21.531v-9.364c0-7.449 6.027-13.624 13.435-13.767 3.561-.079 6.976 1.322 9.617 3.913 2.77 2.718 4.359 6.484 4.359 10.332v23.709c0 18.754 15.222 34.302 33.932 34.66.221.004.442.006.664.006 8.973 0 17.47-3.499 23.989-9.895 6.751-6.623 10.623-15.826 10.623-25.25v-18.215c20.172 27.524 52.723 45.432 89.384 45.432 52.209 0 96.09-36.312 107.73-85.007a10.027 10.027 0 0 1 2.18 6.23v25.773c0 19.673 15.968 35.984 35.596 36.361.233.004.464.006.696.006 9.409 0 18.321-3.671 25.161-10.38 7.086-6.951 11.149-16.61 11.149-26.5v-24.856c0-2.83 1.17-5.6 3.21-7.602 1.927-1.889 4.429-2.882 6.986-2.854 5.403.104 9.8 4.612 9.8 10.05v2.721c0 14.409 10.071 26.69 23.526 30.04C453.848 418.996 363.189 491.102 256 491.102zm223.405-200.399v-2.721c0-16.741-13.591-30.624-30.297-30.944-8.235-.159-16.057 2.978-22.022 8.829-6.021 5.906-9.473 14.113-9.473 22.52v24.856c0 4.314-1.782 8.536-4.886 11.582-2.97 2.912-6.846 4.462-10.82 4.397-8.326-.16-15.099-7.098-15.099-15.468v-25.773c0-13.154-8.392-24.538-20.091-28.971.027-1.001.043-2.004.043-3.011 0-46.06-29.007-87.788-72.182-103.836-5.411-2.01-11.425.745-13.434 6.154-2.01 5.409.745 11.424 6.154 13.434 35.027 13.021 58.562 46.877 58.562 84.248 0 49.549-40.312 89.861-89.861 89.861-49.549 0-89.861-40.312-89.861-89.861 0-37.372 23.535-71.228 58.565-84.246 5.409-2.01 8.164-8.026 6.154-13.434s-8.022-8.165-13.434-6.154C174.248 168.21 145.239 209.938 145.239 256a110.22 110.22 0 0 0 7.085 38.971 30.145 30.145 0 0 0-6.607 18.808v25.763c0 3.848-1.589 7.614-4.359 10.332-2.642 2.591-6.036 3.973-9.617 3.913-7.407-.142-13.434-6.317-13.434-13.766v-23.709c0-9.424-3.872-18.627-10.623-25.251-6.681-6.554-15.435-10.081-24.652-9.889-18.71.358-33.932 15.907-33.932 34.66v9.364c0 2.461-1.019 4.871-2.794 6.613-1.668 1.635-3.808 2.506-6.034 2.47-3.374-.065-6.387-2.139-7.733-5.21-7.543-23.011-11.64-47.569-11.64-73.07C20.898 126.365 126.365 20.898 256 20.898S491.102 126.365 491.102 256c0 15.182-1.464 30.026-4.227 44.414-4.281-1.138-7.47-5.083-7.47-9.711z"/></svg>