<?xml version="1.0" encoding="utf-8"?>
<!-- Generator: Adobe Illustrator 21.1.0, SVG Export Plug-In . SVG Version: 6.00 Build 0)  -->
<svg version="1.1" id="Capa_1" xmlns="http://www.w3.org/2000/svg" xmlns:xlink="http://www.w3.org/1999/xlink" x="0px" y="0px"
	 width="310.4px" height="310.4px" viewBox="0 0 310.4 310.4" style="enable-background:new 0 0 310.4 310.4;" xml:space="preserve"
	>
<style type="text/css">
	.st0{fill:#9E9E9E;}
</style>
<g>
	<g>
		<path class="st0" d="M273.6,215c49.1-49.1,49.1-129,0-178.1c-49.1-49.1-129-49.1-178.1,0c-41.7,41.7-48,103.6-18.9,152
			c0,0,2.1,3.5-0.7,6.3c-16.1,16.1-64.3,64.3-64.3,64.3c-12.8,12.8-15.8,30.7-4.5,42l2,2c11.3,11.3,29.2,8.3,42-4.5
			c0,0,48.1-48.1,64.1-64.1c3-3,6.4-0.9,6.4-0.9C170,262.9,231.9,256.6,273.6,215z M118.7,191.7c-36.3-36.3-36.3-95.3,0-131.6
			c36.3-36.3,95.3-36.3,131.6,0c36.3,36.3,36.3,95.3,0,131.6C214,228,155,228,118.7,191.7z"/>
		<g>
			<path class="st0" d="M126.8,118.4c-1.7,0-3.4-0.3-5.1-1c-6.6-2.8-9.7-10.4-6.9-17c17.6-41.6,65.7-61.1,107.3-43.5
				c6.6,2.8,9.7,10.4,6.9,17c-2.8,6.6-10.4,9.7-17,6.9c-28.4-12-61.2,1.3-73.2,29.7C136.6,115.4,131.8,118.4,126.8,118.4z"/>
		</g>
	</g>
</g>
</svg>
