<?xml version="1.0" encoding="utf-8"?>
<!-- Generator: Adobe Illustrator 26.3.1, SVG Export Plug-In . SVG Version: 6.00 Build 0)  -->
<svg version="1.1" id="Layer_1" xmlns="http://www.w3.org/2000/svg" xmlns:xlink="http://www.w3.org/1999/xlink" x="0px" y="0px"
	 width="20px" height="40px" viewBox="0 0 20 40" enable-background="new 0 0 20 40" xml:space="preserve">
<path fill-rule="evenodd" clip-rule="evenodd" fill="#868686" d="M12,8.81c0,2.08-1.68,3.76-3.76,3.76c-2.08,0-3.76-1.68-3.76-3.76
	c0-2.08,1.68-3.76,3.76-3.76C10.32,5.05,12,6.73,12,8.81z M11.23,12.72c-0.83,0.64-1.87,1.01-2.99,1.01c-2.72,0-4.92-2.2-4.92-4.92
	c0-2.72,2.2-4.92,4.92-4.92c2.72,0,4.92,2.2,4.92,4.92c0,1.13-0.38,2.16-1.01,2.99l3.94,3.93c0.25,0.25,0.25,0.66,0,0.92
	c-0.25,0.25-0.66,0.25-0.92,0L11.23,12.72z"/>
<path fill-rule="evenodd" clip-rule="evenodd" fill="#C0C0BF" d="M12,28.81c0,2.08-1.68,3.76-3.76,3.76c-2.08,0-3.76-1.68-3.76-3.76
	c0-2.08,1.68-3.76,3.76-3.76C10.32,25.05,12,26.73,12,28.81z M11.23,32.72c-0.83,0.64-1.87,1.01-2.99,1.01
	c-2.72,0-4.92-2.2-4.92-4.92c0-2.72,2.2-4.92,4.92-4.92c2.72,0,4.92,2.2,4.92,4.92c0,1.13-0.38,2.16-1.01,2.99l3.94,3.93
	c0.25,0.25,0.25,0.66,0,0.92c-0.25,0.25-0.66,0.25-0.92,0L11.23,32.72z"/>
</svg>
